<mxfile host="app.diagrams.net" modified="2020-11-20T13:40:58.168Z" agent="5.0 (Macintosh; Intel Mac OS X 10_15_6) AppleWebKit/605.1.15 (KHTML, like Gecko) Version/14.0.1 Safari/605.1.15" etag="Pjq0oYhoI5iPxv33-5WZ" version="13.10.0" type="github" pages="7">
  <diagram name="Employee Log In" id="Employee_Log_In">
    <mxGraphModel dx="1554" dy="771" grid="1" gridSize="10" guides="1" tooltips="1" connect="1" arrows="1" fold="1" page="1" pageScale="1" pageWidth="1080" pageHeight="1240" math="0" shadow="0" extFonts="Permanent Marker^https://fonts.googleapis.com/css?family=Permanent+Marker">
      <root>
        <mxCell id="0" />
        <mxCell id="1" value="Connector" parent="0" />
        <mxCell id="2" style="vsdxID=1;fillColor=#FFFFFF;gradientColor=none;shape=stencil(nZBLDoAgDERP0z3SIyjew0SURgSD+Lu9kMZoXLhwN9O+tukAlrNpJg1SzDH4QW/URgNYgZTkjA4UkwJUgGXng+6DX1zLfmoymdXo17xh5zmRJ6Q42BWCfc2oJfdAr+Yv+AP9Cb7OJ3H/2JG1HNGz/84klThPVCc=);labelBackgroundColor=none;rounded=0;html=1;whiteSpace=wrap;" parent="1" vertex="1">
          <mxGeometry x="112" y="78" width="127" height="36" as="geometry" />
        </mxCell>
        <mxCell id="3" style="vsdxID=2;fillColor=#FFFFFF;gradientColor=none;shape=stencil(nZBLDoAgDERP0z3SIyjew0SURgSD+Lu9kMZoXLhwN9O+tukAlrNpJg1SzDH4QW/URgNYgZTkjA4UkwJUgGXng+6DX1zLfmoymdXo17xh5zmRJ6Q42BWCfc2oJfdAr+Yv+AP9Cb7OJ3H/2JG1HNGz/84klThPVCc=);labelBackgroundColor=none;rounded=0;html=1;whiteSpace=wrap;" parent="2" vertex="1">
          <mxGeometry x="27" width="72" height="36" as="geometry" />
        </mxCell>
        <mxCell id="4" style="vsdxID=3;fillColor=#FFFFFF;gradientColor=none;shape=stencil(tZTNDoIwDICfZkeSsQXFM+J7LDJgcTJSpuDbu6USgQhBord2/dr1LyU8aUpRS8JoY8FcZKsyWxJ+JIypqpSgrJMITwlPcgOyAHOrMtRr4UkvXc3dR+jQj1HvwugD1ZCifkJWq2qejdaj+wV0K8kXyHCMsmgePaxH++asy2B9XfFmdGkE8ReTjbazux+FXV7E8dLyKTtEBZydCSabAH3HUO1GrZ4Eol0gOtUEYKywylSj7dMCChm4T4Jci+Llh6amlbIePG9O63N9f0nLCe/TkCut8bIM7dNT4p7wDPH0CQ==);labelBackgroundColor=none;rounded=0;html=1;whiteSpace=wrap;" parent="2" vertex="1">
          <mxGeometry x="51" y="-53" width="24" height="48" as="geometry" />
        </mxCell>
        <mxCell id="5" style="vsdxID=5;edgeStyle=none;dashed=1;startArrow=none;endArrow=none;startSize=5;endSize=5;spacingTop=0;spacingBottom=0;spacingLeft=0;spacingRight=0;verticalAlign=middle;html=1;labelBackgroundColor=#ffffff;rounded=0;" parent="2" edge="1">
          <mxGeometry relative="1" as="geometry">
            <Array as="points" />
            <mxPoint x="63" y="36" as="sourcePoint" />
            <mxPoint x="63" y="625" as="targetPoint" />
          </mxGeometry>
        </mxCell>
        <mxCell id="6" value="&lt;font style=&quot;font-size:16px;font-family:Arial;color:#000000;direction:ltr;letter-spacing:0px;line-height:120%;opacity:1&quot;&gt;&lt;b&gt;Employee&lt;br/&gt;&lt;/b&gt;&lt;/font&gt;" style="text;vsdxID=1;fillColor=none;gradientColor=none;labelBackgroundColor=none;rounded=0;html=1;whiteSpace=wrap;verticalAlign=middle;align=center;strokeColor=none;;html=1;" parent="2" vertex="1">
          <mxGeometry width="127.2" height="36" as="geometry" />
        </mxCell>
        <mxCell id="7" style="vsdxID=11;fillColor=#FFFFFF;gradientColor=none;shape=stencil(nZBLDoAgDERP0z3SIyjew0SURgSD+Lu9kMZoXLhwN9O+tukAlrNpJg1SzDH4QW/URgNYgZTkjA4UkwJUgGXng+6DX1zLfmoymdXo17xh5zmRJ6Q42BWCfc2oJfdAr+Yv+AP9Cb7OJ3H/2JG1HNGz/84klThPVCc=);labelBackgroundColor=none;rounded=0;html=1;whiteSpace=wrap;" parent="1" vertex="1">
          <mxGeometry x="355" y="78" width="105" height="36" as="geometry" />
        </mxCell>
        <mxCell id="8" style="vsdxID=12;fillColor=#FFFFFF;gradientColor=none;shape=stencil(nZBLDoAgDERP0z3SIyjew0SURgSD+Lu9kMZoXLhwN9O+tukAlrNpJg1SzDH4QW/URgNYgZTkjA4UkwJUgGXng+6DX1zLfmoymdXo17xh5zmRJ6Q42BWCfc2oJfdAr+Yv+AP9Cb7OJ3H/2JG1HNGz/84klThPVCc=);labelBackgroundColor=none;rounded=0;html=1;whiteSpace=wrap;" parent="7" vertex="1">
          <mxGeometry x="16" width="72" height="36" as="geometry" />
        </mxCell>
        <mxCell id="9" style="vsdxID=13;fillColor=#FFFFFF;gradientColor=none;shape=stencil(1VFBDsIgEHwNRxKE+IJa/7GxSyFiaRa07e+FLImtB+/eZnZmdgkjTJcczCi0SpniHRc/ZCfMRWjtJ4fkc0HC9MJ0NhKOFJ/TwHyG6qzoEV91w8q5s6oRrTamJ8X8yl6gW9GoeZuVtgP9vUitElafJMUM2cfpEA1AI8pyRNoAYwuylBbEeTf+h2cV8Plm60Pglvb6dy1lxJWa/g0=);labelBackgroundColor=none;rounded=0;html=1;whiteSpace=wrap;" parent="7" vertex="1">
          <mxGeometry x="40" y="-5" width="24" height="1" as="geometry" />
        </mxCell>
        <mxCell id="10" style="vsdxID=15;edgeStyle=none;dashed=1;startArrow=none;endArrow=none;startSize=5;endSize=5;spacingTop=0;spacingBottom=0;spacingLeft=0;spacingRight=0;verticalAlign=middle;html=1;labelBackgroundColor=#ffffff;rounded=0;" parent="7" edge="1">
          <mxGeometry relative="1" as="geometry">
            <Array as="points" />
            <mxPoint x="52" y="36" as="sourcePoint" />
            <mxPoint x="52" y="625" as="targetPoint" />
          </mxGeometry>
        </mxCell>
        <mxCell id="11" value="&lt;font style=&quot;font-size:16px;font-family:Arial;color:#000000;direction:ltr;letter-spacing:0px;line-height:120%;opacity:1&quot;&gt;&lt;b&gt;Credentials&lt;br/&gt;&lt;/b&gt;&lt;/font&gt;" style="text;vsdxID=11;fillColor=none;gradientColor=none;labelBackgroundColor=none;rounded=0;html=1;whiteSpace=wrap;verticalAlign=middle;align=center;strokeColor=none;;html=1;" parent="7" vertex="1">
          <mxGeometry width="105.9" height="36" as="geometry" />
        </mxCell>
        <mxCell id="12" style="vsdxID=16;fillColor=#FFFFFF;gradientColor=none;shape=stencil(nZBLDoAgDERP0z3SIyjew0SURgSD+Lu9kMZoXLhwN9O+tukAlrNpJg1SzDH4QW/URgNYgZTkjA4UkwJUgGXng+6DX1zLfmoymdXo17xh5zmRJ6Q42BWCfc2oJfdAr+Yv+AP9Cb7OJ3H/2JG1HNGz/84klThPVCc=);labelBackgroundColor=none;rounded=0;html=1;whiteSpace=wrap;" parent="1" vertex="1">
          <mxGeometry x="589" y="78" width="105" height="36" as="geometry" />
        </mxCell>
        <mxCell id="13" style="vsdxID=17;fillColor=#FFFFFF;gradientColor=none;shape=stencil(nZBLDoAgDERP0z3SIyjew0SURgSD+Lu9kMZoXLhwN9O+tukAlrNpJg1SzDH4QW/URgNYgZTkjA4UkwJUgGXng+6DX1zLfmoymdXo17xh5zmRJ6Q42BWCfc2oJfdAr+Yv+AP9Cb7OJ3H/2JG1HNGz/84klThPVCc=);labelBackgroundColor=none;rounded=0;html=1;whiteSpace=wrap;" parent="12" vertex="1">
          <mxGeometry x="16" width="72" height="36" as="geometry" />
        </mxCell>
        <mxCell id="14" style="vsdxID=18;fillColor=#FFFFFF;gradientColor=none;shape=stencil(1VFBDsIgEHwNRxKE+IJa/7GxSyFiaRa07e+FLImtB+/eZnZmdgkjTJcczCi0SpniHRc/ZCfMRWjtJ4fkc0HC9MJ0NhKOFJ/TwHyG6qzoEV91w8q5s6oRrTamJ8X8yl6gW9GoeZuVtgP9vUitElafJMUM2cfpEA1AI8pyRNoAYwuylBbEeTf+h2cV8Plm60Pglvb6dy1lxJWa/g0=);labelBackgroundColor=none;rounded=0;html=1;whiteSpace=wrap;" parent="12" vertex="1">
          <mxGeometry x="40" y="-5" width="24" height="1" as="geometry" />
        </mxCell>
        <mxCell id="15" style="vsdxID=20;edgeStyle=none;dashed=1;startArrow=none;endArrow=none;startSize=5;endSize=5;spacingTop=0;spacingBottom=0;spacingLeft=0;spacingRight=0;verticalAlign=middle;html=1;labelBackgroundColor=#ffffff;rounded=0;" parent="12" edge="1">
          <mxGeometry relative="1" as="geometry">
            <Array as="points" />
            <mxPoint x="52" y="36" as="sourcePoint" />
            <mxPoint x="52" y="625" as="targetPoint" />
          </mxGeometry>
        </mxCell>
        <mxCell id="16" value="&lt;font style=&quot;font-size:16px;font-family:Arial;color:#000000;direction:ltr;letter-spacing:0px;line-height:120%;opacity:1&quot;&gt;&lt;b&gt;Program&lt;br/&gt;&lt;/b&gt;&lt;/font&gt;" style="text;vsdxID=16;fillColor=none;gradientColor=none;labelBackgroundColor=none;rounded=0;html=1;whiteSpace=wrap;verticalAlign=middle;align=center;strokeColor=none;;html=1;" parent="12" vertex="1">
          <mxGeometry width="105.9" height="36" as="geometry" />
        </mxCell>
        <mxCell id="17" style="vsdxID=26;fillColor=#FFFFFF;gradientColor=none;fillOpacity=0;shape=stencil(nZBLDoAgDERP0z3SIyjew0SURgSD+Lu9kMZoXLhwN9O+tukAlrNpJg1SzDH4QW/URgNYgZTkjA4UkwJUgGXng+6DX1zLfmoymdXo17xh5zmRJ6Q42BWCfc2oJfdAr+Yv+AP9Cb7OJ3H/2JG1HNGz/84klThPVCc=);labelBackgroundColor=none;rounded=0;html=1;whiteSpace=wrap;" parent="1" vertex="1">
          <mxGeometry x="26" y="299" width="680" height="366" as="geometry" />
        </mxCell>
        <mxCell id="18" value="&lt;p style=&quot;align:left;margin-left:0;margin-right:0;margin-top:0px;margin-bottom:0px;text-indent:0;valign:middle;direction:ltr;&quot;&gt;&lt;font style=&quot;font-size:9px;font-family:Arial;color:#000000;direction:ltr;letter-spacing:0px;line-height:120%;opacity:1&quot;&gt;&lt;b&gt;alt&lt;br/&gt;&lt;/b&gt;&lt;/font&gt;&lt;/p&gt;" style="verticalAlign=middle;align=left;vsdxID=27;fillColor=#ffffff;gradientColor=none;shape=stencil(nZFLDsIwDERP423k2GrFvpR7VGpKIkJSpeF3exJ5QekCqexm7GfLGgN3ix1mA4RLTvFiHm7MFvgIRC5Yk1wuCrgH7qaYzDnFWxjFz0Mlq7rGe93wlDmsE4QvcRrFnwT1LqxQjUo3O3CtWvrCm1Yd9vA/luN/4ObgIj65TM57iXXd3+ZYSvID7t8=);labelBackgroundColor=none;rounded=0;html=1;whiteSpace=wrap;" parent="17" vertex="1">
          <mxGeometry width="680" height="23" as="geometry" />
        </mxCell>
        <mxCell id="19" value="&lt;font style=&quot;font-size:9px;font-family:Arial;color:#000000;direction:ltr;letter-spacing:0px;line-height:120%;opacity:1&quot;&gt;[if credentials are incorrect]&lt;br/&gt;&lt;/font&gt;" style="verticalAlign=middle;align=left;vsdxID=28;fillColor=none;gradientColor=none;shape=stencil(nVBbDsIgEDzN/iN7BKz3aALIRgoE8HV7IRvT2igf/s3szL4GUBU3JwNSlJrjxdxJVwd4BCkpOJOpNgQ4ASobsznneA2aeZq7s6Ml3vqEB/eJ3iHFk9lBMD99s77Fv8wfVk/h5wmDmcP1Daw/WvKeI9rq+0xaifPE6QU=);dashed=1;labelBackgroundColor=none;rounded=0;html=1;whiteSpace=wrap;" parent="1" vertex="1">
          <mxGeometry x="26" y="422" width="680" height="243" as="geometry" />
        </mxCell>
        <mxCell id="20" value="&lt;font style=&quot;font-size:9px;font-family:Arial;color:#000000;direction:ltr;letter-spacing:0px;line-height:120%;opacity:1&quot;&gt;[if credentials are correct]&lt;br/&gt;&lt;/font&gt;" style="verticalAlign=middle;align=left;vsdxID=29;fillColor=none;gradientColor=none;dashed=1;labelBackgroundColor=none;rounded=0;html=1;strokeColor=none;whiteSpace=wrap;" parent="1" vertex="1">
          <mxGeometry x="26" y="322" width="680" height="100" as="geometry" />
        </mxCell>
        <mxCell id="21" value="&lt;font style=&quot;font-size:9px;font-family:Arial;color:#000000;direction:ltr;letter-spacing:0px;line-height:120%;opacity:1&quot;&gt;EnterCredentials(username, password)&lt;br/&gt;&lt;/font&gt;" style="vsdxID=36;edgeStyle=none;startArrow=none;endArrow=block;startSize=2;endSize=7;spacingTop=0;spacingBottom=0;spacingLeft=0;spacingRight=0;verticalAlign=middle;html=1;labelBackgroundColor=#ffffff;rounded=0;align=center;exitX=0.5039370078740157;exitY=1.7222222222222223;exitDx=0;exitDy=0;exitPerimeter=0;entryX=0.5039370078740157;entryY=3.111111111111111;entryDx=0;entryDy=0;entryPerimeter=0;" parent="1" source="2" target="2" edge="1">
          <mxGeometry relative="1" as="geometry">
            <mxPoint x="-16" y="-1" as="offset" />
            <Array as="points">
              <mxPoint x="201.4" y="140" />
              <mxPoint x="201.4" y="190.8" />
            </Array>
          </mxGeometry>
        </mxCell>
        <mxCell id="22" value="&lt;font style=&quot;font-size:9px;font-family:Arial;color:#000000;direction:ltr;letter-spacing:0px;line-height:120%;opacity:1&quot;&gt;ReenterCredentials(username, password)&lt;br/&gt;&lt;/font&gt;" style="vsdxID=35;edgeStyle=none;startArrow=none;endArrow=block;startSize=2;endSize=7;spacingTop=0;spacingBottom=0;spacingLeft=0;spacingRight=0;verticalAlign=middle;html=1;labelBackgroundColor=#ffffff;rounded=0;align=center;exitX=0.5039370078740157;exitY=10.88888888888889;exitDx=0;exitDy=0;exitPerimeter=0;entryX=0.5039370078740157;entryY=12.305555555555555;entryDx=0;entryDy=0;entryPerimeter=0;" parent="1" source="2" target="2" edge="1">
          <mxGeometry relative="1" as="geometry">
            <mxPoint x="-16" y="-1" as="offset" />
            <Array as="points">
              <mxPoint x="201.4" y="470" />
              <mxPoint x="201.4" y="520.8" />
            </Array>
          </mxGeometry>
        </mxCell>
        <mxCell id="23" value="&lt;font style=&quot;font-size:9px;font-family:Arial;color:#000000;direction:ltr;letter-spacing:0px;line-height:120%;opacity:1&quot;&gt;CheckCredentials(username, password)&lt;br/&gt;&lt;/font&gt;" style="vsdxID=34;edgeStyle=none;startArrow=none;endArrow=block;startSize=2;endSize=7;spacingTop=0;spacingBottom=0;spacingLeft=0;spacingRight=0;verticalAlign=middle;html=1;labelBackgroundColor=#ffffff;rounded=0;align=center;exitX=0.5047619047619047;exitY=13.694444444444445;exitDx=0;exitDy=0;exitPerimeter=0;entryX=0.5047619047619047;entryY=15.11111111111111;entryDx=0;entryDy=0;entryPerimeter=0;" parent="1" source="7" target="7" edge="1">
          <mxGeometry relative="1" as="geometry">
            <mxPoint x="-16" y="-1" as="offset" />
            <Array as="points">
              <mxPoint x="433.4" y="571" />
              <mxPoint x="433.4" y="621.8" />
            </Array>
          </mxGeometry>
        </mxCell>
        <mxCell id="24" value="&lt;font style=&quot;font-size:9px;font-family:Arial;color:#000000;direction:ltr;letter-spacing:0px;line-height:120%;opacity:1&quot;&gt;SubmitCredentials(username, password)&lt;br/&gt;&lt;/font&gt;" style="vsdxID=33;edgeStyle=none;startArrow=none;endArrow=block;startSize=2;endSize=7;spacingTop=0;spacingBottom=0;spacingLeft=0;spacingRight=0;verticalAlign=middle;html=1;labelBackgroundColor=#ffffff;rounded=0;align=center;exitX=0.5039370078740157;exitY=13;exitDx=0;exitDy=0;exitPerimeter=0;entryX=0.5047619047619047;entryY=13;entryDx=0;entryDy=0;entryPerimeter=0;" parent="1" source="2" target="7" edge="1">
          <mxGeometry relative="1" as="geometry">
            <mxPoint as="offset" />
            <Array as="points" />
          </mxGeometry>
        </mxCell>
        <mxCell id="25" value="&lt;font style=&quot;font-size:9px;font-family:Arial;color:#000000;direction:ltr;letter-spacing:0px;line-height:120%;opacity:1&quot;&gt;SubmitCredentials(username, password)&lt;br/&gt;&lt;/font&gt;" style="vsdxID=21;edgeStyle=none;startArrow=none;endArrow=block;startSize=2;endSize=7;spacingTop=0;spacingBottom=0;spacingLeft=0;spacingRight=0;verticalAlign=middle;html=1;labelBackgroundColor=#ffffff;rounded=0;align=center;exitX=0.5039370078740157;exitY=3.8333333333333335;exitDx=0;exitDy=0;exitPerimeter=0;entryX=0.5047619047619047;entryY=3.8333333333333335;entryDx=0;entryDy=0;entryPerimeter=0;" parent="1" source="2" target="7" edge="1">
          <mxGeometry relative="1" as="geometry">
            <mxPoint as="offset" />
            <Array as="points" />
          </mxGeometry>
        </mxCell>
        <mxCell id="26" value="&lt;font style=&quot;font-size:9px;font-family:Arial;color:#000000;direction:ltr;letter-spacing:0px;line-height:120%;opacity:1&quot;&gt;CheckCredentials(username, password)&lt;br/&gt;&lt;/font&gt;" style="vsdxID=22;edgeStyle=none;startArrow=none;endArrow=block;startSize=2;endSize=7;spacingTop=0;spacingBottom=0;spacingLeft=0;spacingRight=0;verticalAlign=middle;html=1;labelBackgroundColor=#ffffff;rounded=0;align=center;exitX=0.5047619047619047;exitY=4.527777777777778;exitDx=0;exitDy=0;exitPerimeter=0;entryX=0.5047619047619047;entryY=5.944444444444445;entryDx=0;entryDy=0;entryPerimeter=0;" parent="1" source="7" target="7" edge="1">
          <mxGeometry relative="1" as="geometry">
            <mxPoint x="-16" y="-1" as="offset" />
            <Array as="points">
              <mxPoint x="433.4" y="241" />
              <mxPoint x="433.4" y="291.8" />
            </Array>
          </mxGeometry>
        </mxCell>
        <mxCell id="27" value="&lt;font style=&quot;font-size:9px;font-family:Arial;color:#000000;direction:ltr;letter-spacing:0px;line-height:120%;opacity:1&quot;&gt;DisplayEmployeeHomepage()&lt;br/&gt;&lt;/font&gt;" style="vsdxID=30;edgeStyle=none;startArrow=none;endArrow=block;startSize=2;endSize=7;spacingTop=0;spacingBottom=0;spacingLeft=0;spacingRight=0;verticalAlign=middle;html=1;labelBackgroundColor=#ffffff;rounded=0;align=center;exitX=0.5047619047619047;exitY=6.638888888888889;exitDx=0;exitDy=0;exitPerimeter=0;entryX=0.5047619047619047;entryY=6.638888888888889;entryDx=0;entryDy=0;entryPerimeter=0;" parent="1" source="7" target="12" edge="1">
          <mxGeometry relative="1" as="geometry">
            <mxPoint x="-1" as="offset" />
            <Array as="points" />
          </mxGeometry>
        </mxCell>
        <mxCell id="28" value="&lt;font style=&quot;font-size:9px;font-family:Arial;color:#000000;direction:ltr;letter-spacing:0px;line-height:120%;opacity:1&quot;&gt;DisplayErrorMessage()&lt;br/&gt;&lt;/font&gt;" style="vsdxID=32;edgeStyle=none;dashed=1;startArrow=none;endArrow=open;startSize=2;endSize=7;spacingTop=0;spacingBottom=0;spacingLeft=0;spacingRight=0;verticalAlign=middle;html=1;labelBackgroundColor=#ffffff;rounded=0;align=center;exitX=0.5047619047619047;exitY=10.166666666666666;exitDx=0;exitDy=0;exitPerimeter=0;entryX=0.5039370078740157;entryY=10.166666666666666;entryDx=0;entryDy=0;entryPerimeter=0;" parent="1" source="7" target="2" edge="1">
          <mxGeometry relative="1" as="geometry">
            <mxPoint x="-1" as="offset" />
            <Array as="points" />
          </mxGeometry>
        </mxCell>
      </root>
    </mxGraphModel>
  </diagram>
  <diagram name="Administrator Log In" id="Administrator_Log_In">
    <mxGraphModel dx="1554" dy="771" grid="1" gridSize="10" guides="1" tooltips="1" connect="1" arrows="1" fold="1" page="1" pageScale="1" pageWidth="1080" pageHeight="1240" math="0" shadow="0">
      <root>
        <mxCell id="0" />
        <mxCell id="1" value="Connector" parent="0" />
        <mxCell id="2" style="vsdxID=1;fillColor=#FFFFFF;gradientColor=none;shape=stencil(nZBLDoAgDERP0z3SIyjew0SURgSD+Lu9kMZoXLhwN9O+tukAlrNpJg1SzDH4QW/URgNYgZTkjA4UkwJUgGXng+6DX1zLfmoymdXo17xh5zmRJ6Q42BWCfc2oJfdAr+Yv+AP9Cb7OJ3H/2JG1HNGz/84klThPVCc=);labelBackgroundColor=none;rounded=0;html=1;whiteSpace=wrap;" parent="1" vertex="1">
          <mxGeometry x="112" y="78" width="127" height="36" as="geometry" />
        </mxCell>
        <mxCell id="3" style="vsdxID=2;fillColor=#FFFFFF;gradientColor=none;shape=stencil(nZBLDoAgDERP0z3SIyjew0SURgSD+Lu9kMZoXLhwN9O+tukAlrNpJg1SzDH4QW/URgNYgZTkjA4UkwJUgGXng+6DX1zLfmoymdXo17xh5zmRJ6Q42BWCfc2oJfdAr+Yv+AP9Cb7OJ3H/2JG1HNGz/84klThPVCc=);labelBackgroundColor=none;rounded=0;html=1;whiteSpace=wrap;" parent="2" vertex="1">
          <mxGeometry x="27" width="72" height="36" as="geometry" />
        </mxCell>
        <mxCell id="4" style="vsdxID=3;fillColor=#FFFFFF;gradientColor=none;shape=stencil(tZTNDoIwDICfZkeSsQXFM+J7LDJgcTJSpuDbu6USgQhBord2/dr1LyU8aUpRS8JoY8FcZKsyWxJ+JIypqpSgrJMITwlPcgOyAHOrMtRr4UkvXc3dR+jQj1HvwugD1ZCifkJWq2qejdaj+wV0K8kXyHCMsmgePaxH++asy2B9XfFmdGkE8ReTjbazux+FXV7E8dLyKTtEBZydCSabAH3HUO1GrZ4Eol0gOtUEYKywylSj7dMCChm4T4Jci+Llh6amlbIePG9O63N9f0nLCe/TkCut8bIM7dNT4p7wDPH0CQ==);labelBackgroundColor=none;rounded=0;html=1;whiteSpace=wrap;" parent="2" vertex="1">
          <mxGeometry x="51" y="-53" width="24" height="48" as="geometry" />
        </mxCell>
        <mxCell id="5" style="vsdxID=5;edgeStyle=none;dashed=1;startArrow=none;endArrow=none;startSize=5;endSize=5;spacingTop=0;spacingBottom=0;spacingLeft=0;spacingRight=0;verticalAlign=middle;html=1;labelBackgroundColor=#ffffff;rounded=0;" parent="2" edge="1">
          <mxGeometry relative="1" as="geometry">
            <Array as="points" />
            <mxPoint x="63" y="36" as="sourcePoint" />
            <mxPoint x="63" y="625" as="targetPoint" />
          </mxGeometry>
        </mxCell>
        <mxCell id="6" value="&lt;font style=&quot;font-size:16px;font-family:Arial;color:#000000;direction:ltr;letter-spacing:0px;line-height:120%;opacity:1&quot;&gt;&lt;b&gt;Administrator&lt;br/&gt;&lt;/b&gt;&lt;/font&gt;" style="text;vsdxID=1;fillColor=none;gradientColor=none;labelBackgroundColor=none;rounded=0;html=1;whiteSpace=wrap;verticalAlign=middle;align=center;strokeColor=none;;html=1;" parent="2" vertex="1">
          <mxGeometry width="127.2" height="36" as="geometry" />
        </mxCell>
        <mxCell id="7" style="vsdxID=11;fillColor=#FFFFFF;gradientColor=none;shape=stencil(nZBLDoAgDERP0z3SIyjew0SURgSD+Lu9kMZoXLhwN9O+tukAlrNpJg1SzDH4QW/URgNYgZTkjA4UkwJUgGXng+6DX1zLfmoymdXo17xh5zmRJ6Q42BWCfc2oJfdAr+Yv+AP9Cb7OJ3H/2JG1HNGz/84klThPVCc=);labelBackgroundColor=none;rounded=0;html=1;whiteSpace=wrap;" parent="1" vertex="1">
          <mxGeometry x="355" y="78" width="105" height="36" as="geometry" />
        </mxCell>
        <mxCell id="8" style="vsdxID=12;fillColor=#FFFFFF;gradientColor=none;shape=stencil(nZBLDoAgDERP0z3SIyjew0SURgSD+Lu9kMZoXLhwN9O+tukAlrNpJg1SzDH4QW/URgNYgZTkjA4UkwJUgGXng+6DX1zLfmoymdXo17xh5zmRJ6Q42BWCfc2oJfdAr+Yv+AP9Cb7OJ3H/2JG1HNGz/84klThPVCc=);labelBackgroundColor=none;rounded=0;html=1;whiteSpace=wrap;" parent="7" vertex="1">
          <mxGeometry x="16" width="72" height="36" as="geometry" />
        </mxCell>
        <mxCell id="9" style="vsdxID=13;fillColor=#FFFFFF;gradientColor=none;shape=stencil(1VFBDsIgEHwNRxKE+IJa/7GxSyFiaRa07e+FLImtB+/eZnZmdgkjTJcczCi0SpniHRc/ZCfMRWjtJ4fkc0HC9MJ0NhKOFJ/TwHyG6qzoEV91w8q5s6oRrTamJ8X8yl6gW9GoeZuVtgP9vUitElafJMUM2cfpEA1AI8pyRNoAYwuylBbEeTf+h2cV8Plm60Pglvb6dy1lxJWa/g0=);labelBackgroundColor=none;rounded=0;html=1;whiteSpace=wrap;" parent="7" vertex="1">
          <mxGeometry x="40" y="-5" width="24" height="1" as="geometry" />
        </mxCell>
        <mxCell id="10" style="vsdxID=15;edgeStyle=none;dashed=1;startArrow=none;endArrow=none;startSize=5;endSize=5;spacingTop=0;spacingBottom=0;spacingLeft=0;spacingRight=0;verticalAlign=middle;html=1;labelBackgroundColor=#ffffff;rounded=0;" parent="7" edge="1">
          <mxGeometry relative="1" as="geometry">
            <Array as="points" />
            <mxPoint x="52" y="36" as="sourcePoint" />
            <mxPoint x="52" y="625" as="targetPoint" />
          </mxGeometry>
        </mxCell>
        <mxCell id="11" value="&lt;font style=&quot;font-size:16px;font-family:Arial;color:#000000;direction:ltr;letter-spacing:0px;line-height:120%;opacity:1&quot;&gt;&lt;b&gt;Credentials&lt;br/&gt;&lt;/b&gt;&lt;/font&gt;" style="text;vsdxID=11;fillColor=none;gradientColor=none;labelBackgroundColor=none;rounded=0;html=1;whiteSpace=wrap;verticalAlign=middle;align=center;strokeColor=none;;html=1;" parent="7" vertex="1">
          <mxGeometry width="105.9" height="36" as="geometry" />
        </mxCell>
        <mxCell id="12" style="vsdxID=16;fillColor=#FFFFFF;gradientColor=none;shape=stencil(nZBLDoAgDERP0z3SIyjew0SURgSD+Lu9kMZoXLhwN9O+tukAlrNpJg1SzDH4QW/URgNYgZTkjA4UkwJUgGXng+6DX1zLfmoymdXo17xh5zmRJ6Q42BWCfc2oJfdAr+Yv+AP9Cb7OJ3H/2JG1HNGz/84klThPVCc=);labelBackgroundColor=none;rounded=0;html=1;whiteSpace=wrap;" parent="1" vertex="1">
          <mxGeometry x="589" y="78" width="105" height="36" as="geometry" />
        </mxCell>
        <mxCell id="13" style="vsdxID=17;fillColor=#FFFFFF;gradientColor=none;shape=stencil(nZBLDoAgDERP0z3SIyjew0SURgSD+Lu9kMZoXLhwN9O+tukAlrNpJg1SzDH4QW/URgNYgZTkjA4UkwJUgGXng+6DX1zLfmoymdXo17xh5zmRJ6Q42BWCfc2oJfdAr+Yv+AP9Cb7OJ3H/2JG1HNGz/84klThPVCc=);labelBackgroundColor=none;rounded=0;html=1;whiteSpace=wrap;" parent="12" vertex="1">
          <mxGeometry x="16" width="72" height="36" as="geometry" />
        </mxCell>
        <mxCell id="14" style="vsdxID=18;fillColor=#FFFFFF;gradientColor=none;shape=stencil(1VFBDsIgEHwNRxKE+IJa/7GxSyFiaRa07e+FLImtB+/eZnZmdgkjTJcczCi0SpniHRc/ZCfMRWjtJ4fkc0HC9MJ0NhKOFJ/TwHyG6qzoEV91w8q5s6oRrTamJ8X8yl6gW9GoeZuVtgP9vUitElafJMUM2cfpEA1AI8pyRNoAYwuylBbEeTf+h2cV8Plm60Pglvb6dy1lxJWa/g0=);labelBackgroundColor=none;rounded=0;html=1;whiteSpace=wrap;" parent="12" vertex="1">
          <mxGeometry x="40" y="-5" width="24" height="1" as="geometry" />
        </mxCell>
        <mxCell id="15" style="vsdxID=20;edgeStyle=none;dashed=1;startArrow=none;endArrow=none;startSize=5;endSize=5;spacingTop=0;spacingBottom=0;spacingLeft=0;spacingRight=0;verticalAlign=middle;html=1;labelBackgroundColor=#ffffff;rounded=0;" parent="12" edge="1">
          <mxGeometry relative="1" as="geometry">
            <Array as="points" />
            <mxPoint x="52" y="36" as="sourcePoint" />
            <mxPoint x="52" y="625" as="targetPoint" />
          </mxGeometry>
        </mxCell>
        <mxCell id="16" value="&lt;font style=&quot;font-size:16px;font-family:Arial;color:#000000;direction:ltr;letter-spacing:0px;line-height:120%;opacity:1&quot;&gt;&lt;b&gt;Program&lt;br/&gt;&lt;/b&gt;&lt;/font&gt;" style="text;vsdxID=16;fillColor=none;gradientColor=none;labelBackgroundColor=none;rounded=0;html=1;whiteSpace=wrap;verticalAlign=middle;align=center;strokeColor=none;;html=1;" parent="12" vertex="1">
          <mxGeometry width="105.9" height="36" as="geometry" />
        </mxCell>
        <mxCell id="17" style="vsdxID=26;fillColor=#FFFFFF;gradientColor=none;fillOpacity=0;shape=stencil(nZBLDoAgDERP0z3SIyjew0SURgSD+Lu9kMZoXLhwN9O+tukAlrNpJg1SzDH4QW/URgNYgZTkjA4UkwJUgGXng+6DX1zLfmoymdXo17xh5zmRJ6Q42BWCfc2oJfdAr+Yv+AP9Cb7OJ3H/2JG1HNGz/84klThPVCc=);labelBackgroundColor=none;rounded=0;html=1;whiteSpace=wrap;" parent="1" vertex="1">
          <mxGeometry x="26" y="299" width="680" height="366" as="geometry" />
        </mxCell>
        <mxCell id="18" value="&lt;p style=&quot;align:left;margin-left:0;margin-right:0;margin-top:0px;margin-bottom:0px;text-indent:0;valign:middle;direction:ltr;&quot;&gt;&lt;font style=&quot;font-size:9px;font-family:Arial;color:#000000;direction:ltr;letter-spacing:0px;line-height:120%;opacity:1&quot;&gt;&lt;b&gt;alt&lt;br/&gt;&lt;/b&gt;&lt;/font&gt;&lt;/p&gt;" style="verticalAlign=middle;align=left;vsdxID=27;fillColor=#ffffff;gradientColor=none;shape=stencil(nZFLDsIwDERP423k2GrFvpR7VGpKIkJSpeF3exJ5QekCqexm7GfLGgN3ix1mA4RLTvFiHm7MFvgIRC5Yk1wuCrgH7qaYzDnFWxjFz0Mlq7rGe93wlDmsE4QvcRrFnwT1LqxQjUo3O3CtWvrCm1Yd9vA/luN/4ObgIj65TM57iXXd3+ZYSvID7t8=);labelBackgroundColor=none;rounded=0;html=1;whiteSpace=wrap;" parent="17" vertex="1">
          <mxGeometry width="680" height="23" as="geometry" />
        </mxCell>
        <mxCell id="19" value="&lt;font style=&quot;font-size:9px;font-family:Arial;color:#000000;direction:ltr;letter-spacing:0px;line-height:120%;opacity:1&quot;&gt;[if credentials are incorrect]&lt;br/&gt;&lt;/font&gt;" style="verticalAlign=middle;align=left;vsdxID=28;fillColor=none;gradientColor=none;shape=stencil(nVBbDsIgEDzN/iN7BKz3aALIRgoE8HV7IRvT2igf/s3szL4GUBU3JwNSlJrjxdxJVwd4BCkpOJOpNgQ4ASobsznneA2aeZq7s6Ml3vqEB/eJ3iHFk9lBMD99s77Fv8wfVk/h5wmDmcP1Daw/WvKeI9rq+0xaifPE6QU=);dashed=1;labelBackgroundColor=none;rounded=0;html=1;whiteSpace=wrap;" parent="1" vertex="1">
          <mxGeometry x="26" y="422" width="680" height="243" as="geometry" />
        </mxCell>
        <mxCell id="20" value="&lt;font style=&quot;font-size:9px;font-family:Arial;color:#000000;direction:ltr;letter-spacing:0px;line-height:120%;opacity:1&quot;&gt;[if credentials are correct]&lt;br/&gt;&lt;/font&gt;" style="verticalAlign=middle;align=left;vsdxID=29;fillColor=none;gradientColor=none;dashed=1;labelBackgroundColor=none;rounded=0;html=1;strokeColor=none;whiteSpace=wrap;" parent="1" vertex="1">
          <mxGeometry x="26" y="322" width="680" height="100" as="geometry" />
        </mxCell>
        <mxCell id="21" value="&lt;font style=&quot;font-size:9px;font-family:Arial;color:#000000;direction:ltr;letter-spacing:0px;line-height:120%;opacity:1&quot;&gt;EnterCredentials(username, password)&lt;br/&gt;&lt;/font&gt;" style="vsdxID=36;edgeStyle=none;startArrow=none;endArrow=block;startSize=2;endSize=7;spacingTop=0;spacingBottom=0;spacingLeft=0;spacingRight=0;verticalAlign=middle;html=1;labelBackgroundColor=#ffffff;rounded=0;align=center;exitX=0.5039370078740157;exitY=1.7222222222222223;exitDx=0;exitDy=0;exitPerimeter=0;entryX=0.5039370078740157;entryY=3.111111111111111;entryDx=0;entryDy=0;entryPerimeter=0;" parent="1" source="2" target="2" edge="1">
          <mxGeometry relative="1" as="geometry">
            <mxPoint x="-16" y="-1" as="offset" />
            <Array as="points">
              <mxPoint x="201.4" y="140" />
              <mxPoint x="201.4" y="190.8" />
            </Array>
          </mxGeometry>
        </mxCell>
        <mxCell id="22" value="&lt;font style=&quot;font-size:9px;font-family:Arial;color:#000000;direction:ltr;letter-spacing:0px;line-height:120%;opacity:1&quot;&gt;ReenterCredentials(username, password)&lt;br/&gt;&lt;/font&gt;" style="vsdxID=35;edgeStyle=none;startArrow=none;endArrow=block;startSize=2;endSize=7;spacingTop=0;spacingBottom=0;spacingLeft=0;spacingRight=0;verticalAlign=middle;html=1;labelBackgroundColor=#ffffff;rounded=0;align=center;exitX=0.5039370078740157;exitY=10.88888888888889;exitDx=0;exitDy=0;exitPerimeter=0;entryX=0.5039370078740157;entryY=12.305555555555555;entryDx=0;entryDy=0;entryPerimeter=0;" parent="1" source="2" target="2" edge="1">
          <mxGeometry relative="1" as="geometry">
            <mxPoint x="-16" y="-1" as="offset" />
            <Array as="points">
              <mxPoint x="201.4" y="470" />
              <mxPoint x="201.4" y="520.8" />
            </Array>
          </mxGeometry>
        </mxCell>
        <mxCell id="23" value="&lt;font style=&quot;font-size:9px;font-family:Arial;color:#000000;direction:ltr;letter-spacing:0px;line-height:120%;opacity:1&quot;&gt;CheckCredentials(username, password)&lt;br/&gt;&lt;/font&gt;" style="vsdxID=34;edgeStyle=none;startArrow=none;endArrow=block;startSize=2;endSize=7;spacingTop=0;spacingBottom=0;spacingLeft=0;spacingRight=0;verticalAlign=middle;html=1;labelBackgroundColor=#ffffff;rounded=0;align=center;exitX=0.5047619047619047;exitY=13.694444444444445;exitDx=0;exitDy=0;exitPerimeter=0;entryX=0.5047619047619047;entryY=15.11111111111111;entryDx=0;entryDy=0;entryPerimeter=0;" parent="1" source="7" target="7" edge="1">
          <mxGeometry relative="1" as="geometry">
            <mxPoint x="-16" y="-1" as="offset" />
            <Array as="points">
              <mxPoint x="433.4" y="571" />
              <mxPoint x="433.4" y="621.8" />
            </Array>
          </mxGeometry>
        </mxCell>
        <mxCell id="24" value="&lt;font style=&quot;font-size:9px;font-family:Arial;color:#000000;direction:ltr;letter-spacing:0px;line-height:120%;opacity:1&quot;&gt;SubmitCredentials(username, password)&lt;br/&gt;&lt;/font&gt;" style="vsdxID=33;edgeStyle=none;startArrow=none;endArrow=block;startSize=2;endSize=7;spacingTop=0;spacingBottom=0;spacingLeft=0;spacingRight=0;verticalAlign=middle;html=1;labelBackgroundColor=#ffffff;rounded=0;align=center;exitX=0.5039370078740157;exitY=13;exitDx=0;exitDy=0;exitPerimeter=0;entryX=0.5047619047619047;entryY=13;entryDx=0;entryDy=0;entryPerimeter=0;" parent="1" source="2" target="7" edge="1">
          <mxGeometry relative="1" as="geometry">
            <mxPoint as="offset" />
            <Array as="points" />
          </mxGeometry>
        </mxCell>
        <mxCell id="25" value="&lt;font style=&quot;font-size:9px;font-family:Arial;color:#000000;direction:ltr;letter-spacing:0px;line-height:120%;opacity:1&quot;&gt;SubmitCredentials(username, password)&lt;br/&gt;&lt;/font&gt;" style="vsdxID=21;edgeStyle=none;startArrow=none;endArrow=block;startSize=2;endSize=7;spacingTop=0;spacingBottom=0;spacingLeft=0;spacingRight=0;verticalAlign=middle;html=1;labelBackgroundColor=#ffffff;rounded=0;align=center;exitX=0.5039370078740157;exitY=3.8333333333333335;exitDx=0;exitDy=0;exitPerimeter=0;entryX=0.5047619047619047;entryY=3.8333333333333335;entryDx=0;entryDy=0;entryPerimeter=0;" parent="1" source="2" target="7" edge="1">
          <mxGeometry relative="1" as="geometry">
            <mxPoint as="offset" />
            <Array as="points" />
          </mxGeometry>
        </mxCell>
        <mxCell id="26" value="&lt;font style=&quot;font-size:9px;font-family:Arial;color:#000000;direction:ltr;letter-spacing:0px;line-height:120%;opacity:1&quot;&gt;CheckCredentials(username, password)&lt;br/&gt;&lt;/font&gt;" style="vsdxID=22;edgeStyle=none;startArrow=none;endArrow=block;startSize=2;endSize=7;spacingTop=0;spacingBottom=0;spacingLeft=0;spacingRight=0;verticalAlign=middle;html=1;labelBackgroundColor=#ffffff;rounded=0;align=center;exitX=0.5047619047619047;exitY=4.527777777777778;exitDx=0;exitDy=0;exitPerimeter=0;entryX=0.5047619047619047;entryY=5.944444444444445;entryDx=0;entryDy=0;entryPerimeter=0;" parent="1" source="7" target="7" edge="1">
          <mxGeometry relative="1" as="geometry">
            <mxPoint x="-16" y="-1" as="offset" />
            <Array as="points">
              <mxPoint x="433.4" y="241" />
              <mxPoint x="433.4" y="291.8" />
            </Array>
          </mxGeometry>
        </mxCell>
        <mxCell id="27" value="&lt;font style=&quot;font-size:9px;font-family:Arial;color:#000000;direction:ltr;letter-spacing:0px;line-height:120%;opacity:1&quot;&gt;DisplayAdminHomepage()&lt;br/&gt;&lt;/font&gt;" style="vsdxID=30;edgeStyle=none;startArrow=none;endArrow=block;startSize=2;endSize=7;spacingTop=0;spacingBottom=0;spacingLeft=0;spacingRight=0;verticalAlign=middle;html=1;labelBackgroundColor=#ffffff;rounded=0;align=center;exitX=0.5047619047619047;exitY=6.638888888888889;exitDx=0;exitDy=0;exitPerimeter=0;entryX=0.5047619047619047;entryY=6.638888888888889;entryDx=0;entryDy=0;entryPerimeter=0;" parent="1" source="7" target="12" edge="1">
          <mxGeometry relative="1" as="geometry">
            <mxPoint x="-1" as="offset" />
            <Array as="points" />
          </mxGeometry>
        </mxCell>
        <mxCell id="28" value="&lt;font style=&quot;font-size:9px;font-family:Arial;color:#000000;direction:ltr;letter-spacing:0px;line-height:120%;opacity:1&quot;&gt;DisplayErrorMessage()&lt;br/&gt;&lt;/font&gt;" style="vsdxID=32;edgeStyle=none;dashed=1;startArrow=none;endArrow=open;startSize=2;endSize=7;spacingTop=0;spacingBottom=0;spacingLeft=0;spacingRight=0;verticalAlign=middle;html=1;labelBackgroundColor=#ffffff;rounded=0;align=center;exitX=0.5047619047619047;exitY=10.166666666666666;exitDx=0;exitDy=0;exitPerimeter=0;entryX=0.5039370078740157;entryY=10.166666666666666;entryDx=0;entryDy=0;entryPerimeter=0;" parent="1" source="7" target="2" edge="1">
          <mxGeometry relative="1" as="geometry">
            <mxPoint x="-1" as="offset" />
            <Array as="points" />
          </mxGeometry>
        </mxCell>
      </root>
    </mxGraphModel>
  </diagram>
  <diagram name="CV Feedback" id="CV_Feedback">
    <mxGraphModel dx="1554" dy="771" grid="1" gridSize="10" guides="1" tooltips="1" connect="1" arrows="1" fold="1" page="1" pageScale="1" pageWidth="1080" pageHeight="1240" math="0" shadow="0">
      <root>
        <mxCell id="0" />
        <mxCell id="1" value="Connector" parent="0" />
        <mxCell id="2" style="vsdxID=1;fillColor=#FFFFFF;gradientColor=none;shape=stencil(nZBLDoAgDERP0z3SIyjew0SURgSD+Lu9kMZoXLhwN9O+tukAlrNpJg1SzDH4QW/URgNYgZTkjA4UkwJUgGXng+6DX1zLfmoymdXo17xh5zmRJ6Q42BWCfc2oJfdAr+Yv+AP9Cb7OJ3H/2JG1HNGz/84klThPVCc=);labelBackgroundColor=none;rounded=0;html=1;whiteSpace=wrap;" parent="1" vertex="1">
          <mxGeometry x="268" y="78" width="127" height="36" as="geometry" />
        </mxCell>
        <mxCell id="3" style="vsdxID=2;fillColor=#FFFFFF;gradientColor=none;shape=stencil(nZBLDoAgDERP0z3SIyjew0SURgSD+Lu9kMZoXLhwN9O+tukAlrNpJg1SzDH4QW/URgNYgZTkjA4UkwJUgGXng+6DX1zLfmoymdXo17xh5zmRJ6Q42BWCfc2oJfdAr+Yv+AP9Cb7OJ3H/2JG1HNGz/84klThPVCc=);labelBackgroundColor=none;rounded=0;html=1;whiteSpace=wrap;" parent="2" vertex="1">
          <mxGeometry x="27" width="72" height="36" as="geometry" />
        </mxCell>
        <mxCell id="4" style="vsdxID=3;fillColor=#FFFFFF;gradientColor=none;shape=stencil(tZTNDoIwDICfZkeSsQXFM+J7LDJgcTJSpuDbu6USgQhBord2/dr1LyU8aUpRS8JoY8FcZKsyWxJ+JIypqpSgrJMITwlPcgOyAHOrMtRr4UkvXc3dR+jQj1HvwugD1ZCifkJWq2qejdaj+wV0K8kXyHCMsmgePaxH++asy2B9XfFmdGkE8ReTjbazux+FXV7E8dLyKTtEBZydCSabAH3HUO1GrZ4Eol0gOtUEYKywylSj7dMCChm4T4Jci+Llh6amlbIePG9O63N9f0nLCe/TkCut8bIM7dNT4p7wDPH0CQ==);labelBackgroundColor=none;rounded=0;html=1;whiteSpace=wrap;" parent="2" vertex="1">
          <mxGeometry x="51" y="-53" width="24" height="48" as="geometry" />
        </mxCell>
        <mxCell id="5" style="vsdxID=5;edgeStyle=none;dashed=1;startArrow=none;endArrow=none;startSize=5;endSize=5;spacingTop=0;spacingBottom=0;spacingLeft=0;spacingRight=0;verticalAlign=middle;html=1;labelBackgroundColor=#ffffff;rounded=0;" parent="2" edge="1">
          <mxGeometry relative="1" as="geometry">
            <Array as="points" />
            <mxPoint x="63" y="36" as="sourcePoint" />
            <mxPoint x="63" y="932" as="targetPoint" />
          </mxGeometry>
        </mxCell>
        <mxCell id="6" value="&lt;font style=&quot;font-size:16px;font-family:Arial;color:#000000;direction:ltr;letter-spacing:0px;line-height:120%;opacity:1&quot;&gt;&lt;b&gt;Employee&lt;br/&gt;&lt;/b&gt;&lt;/font&gt;" style="text;vsdxID=1;fillColor=none;gradientColor=none;labelBackgroundColor=none;rounded=0;html=1;whiteSpace=wrap;verticalAlign=middle;align=center;strokeColor=none;;html=1;" parent="2" vertex="1">
          <mxGeometry width="127.2" height="36" as="geometry" />
        </mxCell>
        <mxCell id="7" style="vsdxID=11;fillColor=#FFFFFF;gradientColor=none;shape=stencil(nZBLDoAgDERP0z3SIyjew0SURgSD+Lu9kMZoXLhwN9O+tukAlrNpJg1SzDH4QW/URgNYgZTkjA4UkwJUgGXng+6DX1zLfmoymdXo17xh5zmRJ6Q42BWCfc2oJfdAr+Yv+AP9Cb7OJ3H/2JG1HNGz/84klThPVCc=);labelBackgroundColor=none;rounded=0;html=1;whiteSpace=wrap;" parent="1" vertex="1">
          <mxGeometry x="511" y="78" width="105" height="36" as="geometry" />
        </mxCell>
        <mxCell id="8" style="vsdxID=12;fillColor=#FFFFFF;gradientColor=none;shape=stencil(nZBLDoAgDERP0z3SIyjew0SURgSD+Lu9kMZoXLhwN9O+tukAlrNpJg1SzDH4QW/URgNYgZTkjA4UkwJUgGXng+6DX1zLfmoymdXo17xh5zmRJ6Q42BWCfc2oJfdAr+Yv+AP9Cb7OJ3H/2JG1HNGz/84klThPVCc=);labelBackgroundColor=none;rounded=0;html=1;whiteSpace=wrap;" parent="7" vertex="1">
          <mxGeometry x="16" width="72" height="36" as="geometry" />
        </mxCell>
        <mxCell id="9" style="vsdxID=13;fillColor=#FFFFFF;gradientColor=none;shape=stencil(1VFBDsIgEHwNRxKE+IJa/7GxSyFiaRa07e+FLImtB+/eZnZmdgkjTJcczCi0SpniHRc/ZCfMRWjtJ4fkc0HC9MJ0NhKOFJ/TwHyG6qzoEV91w8q5s6oRrTamJ8X8yl6gW9GoeZuVtgP9vUitElafJMUM2cfpEA1AI8pyRNoAYwuylBbEeTf+h2cV8Plm60Pglvb6dy1lxJWa/g0=);labelBackgroundColor=none;rounded=0;html=1;whiteSpace=wrap;" parent="7" vertex="1">
          <mxGeometry x="40" y="-5" width="24" height="1" as="geometry" />
        </mxCell>
        <mxCell id="10" style="vsdxID=15;edgeStyle=none;dashed=1;startArrow=none;endArrow=none;startSize=5;endSize=5;spacingTop=0;spacingBottom=0;spacingLeft=0;spacingRight=0;verticalAlign=middle;html=1;labelBackgroundColor=#ffffff;rounded=0;" parent="7" edge="1">
          <mxGeometry relative="1" as="geometry">
            <Array as="points" />
            <mxPoint x="52" y="36" as="sourcePoint" />
            <mxPoint x="52" y="932" as="targetPoint" />
          </mxGeometry>
        </mxCell>
        <mxCell id="11" value="&lt;font style=&quot;font-size:16px;font-family:Arial;color:#000000;direction:ltr;letter-spacing:0px;line-height:120%;opacity:1&quot;&gt;&lt;b&gt;Template&lt;br/&gt;&lt;/b&gt;&lt;/font&gt;" style="text;vsdxID=11;fillColor=none;gradientColor=none;labelBackgroundColor=none;rounded=0;html=1;whiteSpace=wrap;verticalAlign=middle;align=center;strokeColor=none;;html=1;" parent="7" vertex="1">
          <mxGeometry width="105.9" height="36" as="geometry" />
        </mxCell>
        <mxCell id="12" style="vsdxID=16;fillColor=#FFFFFF;gradientColor=none;shape=stencil(nZBLDoAgDERP0z3SIyjew0SURgSD+Lu9kMZoXLhwN9O+tukAlrNpJg1SzDH4QW/URgNYgZTkjA4UkwJUgGXng+6DX1zLfmoymdXo17xh5zmRJ6Q42BWCfc2oJfdAr+Yv+AP9Cb7OJ3H/2JG1HNGz/84klThPVCc=);labelBackgroundColor=none;rounded=0;html=1;whiteSpace=wrap;" parent="1" vertex="1">
          <mxGeometry x="745" y="78" width="105" height="36" as="geometry" />
        </mxCell>
        <mxCell id="13" style="vsdxID=17;fillColor=#FFFFFF;gradientColor=none;shape=stencil(nZBLDoAgDERP0z3SIyjew0SURgSD+Lu9kMZoXLhwN9O+tukAlrNpJg1SzDH4QW/URgNYgZTkjA4UkwJUgGXng+6DX1zLfmoymdXo17xh5zmRJ6Q42BWCfc2oJfdAr+Yv+AP9Cb7OJ3H/2JG1HNGz/84klThPVCc=);labelBackgroundColor=none;rounded=0;html=1;whiteSpace=wrap;" parent="12" vertex="1">
          <mxGeometry x="16" width="72" height="36" as="geometry" />
        </mxCell>
        <mxCell id="14" style="vsdxID=18;fillColor=#FFFFFF;gradientColor=none;shape=stencil(1VFBDsIgEHwNRxKE+IJa/7GxSyFiaRa07e+FLImtB+/eZnZmdgkjTJcczCi0SpniHRc/ZCfMRWjtJ4fkc0HC9MJ0NhKOFJ/TwHyG6qzoEV91w8q5s6oRrTamJ8X8yl6gW9GoeZuVtgP9vUitElafJMUM2cfpEA1AI8pyRNoAYwuylBbEeTf+h2cV8Plm60Pglvb6dy1lxJWa/g0=);labelBackgroundColor=none;rounded=0;html=1;whiteSpace=wrap;" parent="12" vertex="1">
          <mxGeometry x="40" y="-5" width="24" height="1" as="geometry" />
        </mxCell>
        <mxCell id="15" style="vsdxID=20;edgeStyle=none;dashed=1;startArrow=none;endArrow=none;startSize=5;endSize=5;spacingTop=0;spacingBottom=0;spacingLeft=0;spacingRight=0;verticalAlign=middle;html=1;labelBackgroundColor=#ffffff;rounded=0;" parent="12" edge="1">
          <mxGeometry relative="1" as="geometry">
            <Array as="points" />
            <mxPoint x="52" y="36" as="sourcePoint" />
            <mxPoint x="52" y="933" as="targetPoint" />
          </mxGeometry>
        </mxCell>
        <mxCell id="16" value="&lt;font style=&quot;font-size:16px;font-family:Arial;color:#000000;direction:ltr;letter-spacing:0px;line-height:120%;opacity:1&quot;&gt;&lt;b&gt;Program&lt;br/&gt;&lt;/b&gt;&lt;/font&gt;" style="text;vsdxID=16;fillColor=none;gradientColor=none;labelBackgroundColor=none;rounded=0;html=1;whiteSpace=wrap;verticalAlign=middle;align=center;strokeColor=none;;html=1;" parent="12" vertex="1">
          <mxGeometry width="105.9" height="36" as="geometry" />
        </mxCell>
        <mxCell id="17" style="vsdxID=47;fillColor=#FFFFFF;gradientColor=none;shape=stencil(nZBLDoAgDERP0z3SIyjew0SURgSD+Lu9kMZoXLhwN9O+tukAlrNpJg1SzDH4QW/URgNYgZTkjA4UkwJUgGXng+6DX1zLfmoymdXo17xh5zmRJ6Q42BWCfc2oJfdAr+Yv+AP9Cb7OJ3H/2JG1HNGz/84klThPVCc=);labelBackgroundColor=none;rounded=0;html=1;whiteSpace=wrap;" parent="1" vertex="1">
          <mxGeometry x="25" y="78" width="127" height="36" as="geometry" />
        </mxCell>
        <mxCell id="18" style="vsdxID=48;fillColor=#FFFFFF;gradientColor=none;shape=stencil(nZBLDoAgDERP0z3SIyjew0SURgSD+Lu9kMZoXLhwN9O+tukAlrNpJg1SzDH4QW/URgNYgZTkjA4UkwJUgGXng+6DX1zLfmoymdXo17xh5zmRJ6Q42BWCfc2oJfdAr+Yv+AP9Cb7OJ3H/2JG1HNGz/84klThPVCc=);labelBackgroundColor=none;rounded=0;html=1;whiteSpace=wrap;" parent="17" vertex="1">
          <mxGeometry x="27" width="72" height="36" as="geometry" />
        </mxCell>
        <mxCell id="19" style="vsdxID=49;fillColor=#FFFFFF;gradientColor=none;shape=stencil(tZTNDoIwDICfZkeSsQXFM+J7LDJgcTJSpuDbu6USgQhBord2/dr1LyU8aUpRS8JoY8FcZKsyWxJ+JIypqpSgrJMITwlPcgOyAHOrMtRr4UkvXc3dR+jQj1HvwugD1ZCifkJWq2qejdaj+wV0K8kXyHCMsmgePaxH++asy2B9XfFmdGkE8ReTjbazux+FXV7E8dLyKTtEBZydCSabAH3HUO1GrZ4Eol0gOtUEYKywylSj7dMCChm4T4Jci+Llh6amlbIePG9O63N9f0nLCe/TkCut8bIM7dNT4p7wDPH0CQ==);labelBackgroundColor=none;rounded=0;html=1;whiteSpace=wrap;" parent="17" vertex="1">
          <mxGeometry x="51" y="-53" width="24" height="48" as="geometry" />
        </mxCell>
        <mxCell id="20" style="vsdxID=51;edgeStyle=none;dashed=1;startArrow=none;endArrow=none;startSize=5;endSize=5;spacingTop=0;spacingBottom=0;spacingLeft=0;spacingRight=0;verticalAlign=middle;html=1;labelBackgroundColor=#ffffff;rounded=0;" parent="17" edge="1">
          <mxGeometry relative="1" as="geometry">
            <Array as="points" />
            <mxPoint x="63" y="36" as="sourcePoint" />
            <mxPoint x="63" y="933" as="targetPoint" />
          </mxGeometry>
        </mxCell>
        <mxCell id="21" value="&lt;font style=&quot;font-size:16px;font-family:Arial;color:#000000;direction:ltr;letter-spacing:0px;line-height:120%;opacity:1&quot;&gt;&lt;b&gt;Applicant&lt;br/&gt;&lt;/b&gt;&lt;/font&gt;" style="text;vsdxID=47;fillColor=none;gradientColor=none;labelBackgroundColor=none;rounded=0;html=1;whiteSpace=wrap;verticalAlign=middle;align=center;strokeColor=none;;html=1;" parent="17" vertex="1">
          <mxGeometry width="127.2" height="36" as="geometry" />
        </mxCell>
        <mxCell id="22" value="&lt;font style=&quot;font-size:11px;font-family:Arial;color:#000000;direction:ltr;letter-spacing:0px;line-height:120%;opacity:1&quot;&gt;ReceiveEmail(cvpdf)&lt;br/&gt;&lt;/font&gt;" style="vsdxID=52;edgeStyle=none;dashed=1;startArrow=none;endArrow=open;startSize=2;endSize=7;spacingTop=0;spacingBottom=0;spacingLeft=0;spacingRight=0;verticalAlign=middle;html=1;labelBackgroundColor=#ffffff;rounded=0;align=center;exitX=0.5047619047619047;exitY=24.27777777777778;exitDx=0;exitDy=0;exitPerimeter=0;entryX=0.5039370078740157;entryY=24.27777777777778;entryDx=0;entryDy=0;entryPerimeter=0;" parent="1" source="7" target="17" edge="1">
          <mxGeometry relative="1" as="geometry">
            <mxPoint x="-1" as="offset" />
            <Array as="points" />
          </mxGeometry>
        </mxCell>
        <mxCell id="23" value="&lt;font style=&quot;font-size:11px;font-family:Arial;color:#000000;direction:ltr;letter-spacing:0px;line-height:120%;opacity:1&quot;&gt;SendPDFAsEmail(applicantemail)&lt;br/&gt;&lt;/font&gt;" style="vsdxID=45;edgeStyle=none;dashed=1;startArrow=none;endArrow=open;startSize=2;endSize=7;spacingTop=0;spacingBottom=0;spacingLeft=0;spacingRight=0;verticalAlign=middle;html=1;labelBackgroundColor=#ffffff;rounded=0;align=center;exitX=0.5047619047619047;exitY=23.583333333333332;exitDx=0;exitDy=0;exitPerimeter=0;entryX=0.5047619047619047;entryY=23.583333333333332;entryDx=0;entryDy=0;entryPerimeter=0;" parent="1" source="12" target="7" edge="1">
          <mxGeometry relative="1" as="geometry">
            <mxPoint as="offset" />
            <Array as="points" />
          </mxGeometry>
        </mxCell>
        <mxCell id="24" value="&lt;font style=&quot;font-size:11px;font-family:Arial;color:#000000;direction:ltr;letter-spacing:0px;line-height:120%;opacity:1&quot;&gt;CreatePDF()&lt;br/&gt;&lt;/font&gt;" style="vsdxID=44;edgeStyle=none;startArrow=none;endArrow=block;startSize=2;endSize=7;spacingTop=0;spacingBottom=0;spacingLeft=0;spacingRight=0;verticalAlign=middle;html=1;labelBackgroundColor=#ffffff;rounded=0;align=center;exitX=0.5047619047619047;exitY=21.47222222222222;exitDx=0;exitDy=0;exitPerimeter=0;entryX=0.5047619047619047;entryY=22.88888888888889;entryDx=0;entryDy=0;entryPerimeter=0;" parent="1" source="12" target="12" edge="1">
          <mxGeometry relative="1" as="geometry">
            <mxPoint x="-16" y="-1" as="offset" />
            <Array as="points">
              <mxPoint x="823.4" y="851" />
              <mxPoint x="823.4" y="901.8" />
            </Array>
          </mxGeometry>
        </mxCell>
        <mxCell id="25" value="&lt;font style=&quot;font-size:11px;font-family:Arial;color:#000000;direction:ltr;letter-spacing:0px;line-height:120%;opacity:1&quot;&gt;SendFeedbackData(cvfeedback)&lt;br/&gt;&lt;/font&gt;" style="vsdxID=43;edgeStyle=none;startArrow=none;endArrow=block;startSize=2;endSize=7;spacingTop=0;spacingBottom=0;spacingLeft=0;spacingRight=0;verticalAlign=middle;html=1;labelBackgroundColor=#ffffff;rounded=0;align=center;exitX=0.5047619047619047;exitY=20.75;exitDx=0;exitDy=0;exitPerimeter=0;entryX=0.5047619047619047;entryY=20.75;entryDx=0;entryDy=0;entryPerimeter=0;" parent="1" source="7" target="12" edge="1">
          <mxGeometry relative="1" as="geometry">
            <mxPoint x="-1" as="offset" />
            <Array as="points" />
          </mxGeometry>
        </mxCell>
        <mxCell id="26" value="&lt;font style=&quot;font-size:9px;font-family:Arial;color:#000000;direction:ltr;letter-spacing:0px;line-height:120%;opacity:1&quot;&gt;ClickCreatePDFButton(cvfeedback)&lt;br/&gt;&lt;/font&gt;" style="vsdxID=42;edgeStyle=none;startArrow=none;endArrow=block;startSize=2;endSize=7;spacingTop=0;spacingBottom=0;spacingLeft=0;spacingRight=0;verticalAlign=middle;html=1;labelBackgroundColor=#ffffff;rounded=0;align=center;exitX=0.5039370078740157;exitY=20.055555555555557;exitDx=0;exitDy=0;exitPerimeter=0;entryX=0.5047619047619047;entryY=20.055555555555557;entryDx=0;entryDy=0;entryPerimeter=0;" parent="1" source="2" target="7" edge="1">
          <mxGeometry relative="1" as="geometry">
            <mxPoint as="offset" />
            <Array as="points" />
          </mxGeometry>
        </mxCell>
        <mxCell id="27" value="&lt;font style=&quot;font-size:9px;font-family:Arial;color:#000000;direction:ltr;letter-spacing:0px;line-height:120%;opacity:1&quot;&gt;DisplayFurtherComments()&lt;br/&gt;&lt;/font&gt;" style="vsdxID=41;edgeStyle=none;dashed=1;startArrow=none;endArrow=open;startSize=2;endSize=7;spacingTop=0;spacingBottom=0;spacingLeft=0;spacingRight=0;verticalAlign=middle;html=1;labelBackgroundColor=#ffffff;rounded=0;align=center;exitX=0.5047619047619047;exitY=19.36111111111111;exitDx=0;exitDy=0;exitPerimeter=0;entryX=0.5039370078740157;entryY=19.36111111111111;entryDx=0;entryDy=0;entryPerimeter=0;" parent="1" source="7" target="2" edge="1">
          <mxGeometry relative="1" as="geometry">
            <mxPoint x="-1" as="offset" />
            <Array as="points" />
          </mxGeometry>
        </mxCell>
        <mxCell id="28" value="&lt;font style=&quot;font-size:9px;font-family:Arial;color:#000000;direction:ltr;letter-spacing:0px;line-height:120%;opacity:1&quot;&gt;SetComments()&lt;br/&gt;&lt;/font&gt;" style="vsdxID=40;edgeStyle=none;startArrow=none;endArrow=block;startSize=2;endSize=7;spacingTop=0;spacingBottom=0;spacingLeft=0;spacingRight=0;verticalAlign=middle;html=1;labelBackgroundColor=#ffffff;rounded=0;align=center;exitX=0.5047619047619047;exitY=17.22222222222222;exitDx=0;exitDy=0;exitPerimeter=0;entryX=0.5047619047619047;entryY=18.63888888888889;entryDx=0;entryDy=0;entryPerimeter=0;" parent="1" source="7" target="7" edge="1">
          <mxGeometry relative="1" as="geometry">
            <mxPoint x="-16" y="-1" as="offset" />
            <Array as="points">
              <mxPoint x="589.4" y="698" />
              <mxPoint x="589.4" y="748.8" />
            </Array>
          </mxGeometry>
        </mxCell>
        <mxCell id="29" value="&lt;font style=&quot;font-size:9px;font-family:Arial;color:#000000;direction:ltr;letter-spacing:0px;line-height:120%;opacity:1&quot;&gt;AddFurtherComments()&lt;br/&gt;&lt;/font&gt;" style="vsdxID=38;edgeStyle=none;startArrow=none;endArrow=block;startSize=2;endSize=7;spacingTop=0;spacingBottom=0;spacingLeft=0;spacingRight=0;verticalAlign=middle;html=1;labelBackgroundColor=#ffffff;rounded=0;align=center;exitX=0.5039370078740157;exitY=16.52777777777778;exitDx=0;exitDy=0;exitPerimeter=0;entryX=0.5047619047619047;entryY=16.52777777777778;entryDx=0;entryDy=0;entryPerimeter=0;" parent="1" source="2" target="7" edge="1">
          <mxGeometry relative="1" as="geometry">
            <mxPoint as="offset" />
            <Array as="points" />
          </mxGeometry>
        </mxCell>
        <mxCell id="31" parent="1" vertex="1">
          <mxGeometry x="564" y="619" as="geometry" />
        </mxCell>
        <mxCell id="35" parent="1" vertex="1">
          <mxGeometry x="564" y="492" as="geometry" />
        </mxCell>
        <mxCell id="38" value="&lt;font style=&quot;font-size:9px;font-family:Arial;color:#000000;direction:ltr;letter-spacing:0px;line-height:120%;opacity:1&quot;&gt;DisplaySelectedApplicant()&lt;br/&gt;&lt;/font&gt;" style="vsdxID=30;edgeStyle=none;dashed=1;startArrow=none;endArrow=open;startSize=2;endSize=7;spacingTop=0;spacingBottom=0;spacingLeft=0;spacingRight=0;verticalAlign=middle;html=1;labelBackgroundColor=#ffffff;rounded=0;align=center;exitX=0.5047619047619047;exitY=8.777777777777779;exitDx=0;exitDy=0;exitPerimeter=0;entryX=0.5039370078740157;entryY=8.777777777777779;entryDx=0;entryDy=0;entryPerimeter=0;" parent="1" source="7" target="2" edge="1">
          <mxGeometry relative="1" as="geometry">
            <mxPoint x="-1" as="offset" />
            <Array as="points" />
          </mxGeometry>
        </mxCell>
        <mxCell id="39" value="&lt;font style=&quot;font-size:9px;font-family:Arial;color:#000000;direction:ltr;letter-spacing:0px;line-height:120%;opacity:1&quot;&gt;SetApplicantName()&lt;br/&gt;&lt;/font&gt;" style="vsdxID=29;edgeStyle=none;startArrow=none;endArrow=block;startSize=2;endSize=7;spacingTop=0;spacingBottom=0;spacingLeft=0;spacingRight=0;verticalAlign=middle;html=1;labelBackgroundColor=#ffffff;rounded=0;align=center;exitX=0.5047619047619047;exitY=6.638888888888889;exitDx=0;exitDy=0;exitPerimeter=0;entryX=0.5047619047619047;entryY=8.055555555555555;entryDx=0;entryDy=0;entryPerimeter=0;" parent="1" source="7" target="7" edge="1">
          <mxGeometry relative="1" as="geometry">
            <mxPoint x="-16" y="-1" as="offset" />
            <Array as="points">
              <mxPoint x="589.4" y="317" />
              <mxPoint x="589.4" y="367.8" />
            </Array>
          </mxGeometry>
        </mxCell>
        <mxCell id="40" value="&lt;font style=&quot;font-size:9px;font-family:Arial;color:#000000;direction:ltr;letter-spacing:0px;line-height:120%;opacity:1&quot;&gt;ReturnApplicantNames()&lt;br/&gt;&lt;/font&gt;" style="vsdxID=28;edgeStyle=none;dashed=1;startArrow=none;endArrow=open;startSize=2;endSize=7;spacingTop=0;spacingBottom=0;spacingLeft=0;spacingRight=0;verticalAlign=middle;html=1;labelBackgroundColor=#ffffff;rounded=0;align=center;exitX=0.5047619047619047;exitY=5.944444444444445;exitDx=0;exitDy=0;exitPerimeter=0;entryX=0.5047619047619047;entryY=5.944444444444445;entryDx=0;entryDy=0;entryPerimeter=0;" parent="1" source="12" target="7" edge="1">
          <mxGeometry relative="1" as="geometry">
            <mxPoint as="offset" />
            <Array as="points" />
          </mxGeometry>
        </mxCell>
        <mxCell id="41" value="&lt;font style=&quot;font-size:9px;font-family:Arial;color:#000000;direction:ltr;letter-spacing:0px;line-height:120%;opacity:1&quot;&gt;FetchApplicantNames()&lt;br/&gt;&lt;/font&gt;" style="vsdxID=27;edgeStyle=none;startArrow=none;endArrow=block;startSize=2;endSize=7;spacingTop=0;spacingBottom=0;spacingLeft=0;spacingRight=0;verticalAlign=middle;html=1;labelBackgroundColor=#ffffff;rounded=0;align=center;exitX=0.5047619047619047;exitY=5.25;exitDx=0;exitDy=0;exitPerimeter=0;entryX=0.5047619047619047;entryY=5.25;entryDx=0;entryDy=0;entryPerimeter=0;" parent="1" source="7" target="12" edge="1">
          <mxGeometry relative="1" as="geometry">
            <mxPoint x="-1" as="offset" />
            <Array as="points" />
          </mxGeometry>
        </mxCell>
        <mxCell id="42" value="&lt;font style=&quot;font-size:9px;font-family:Arial;color:#000000;direction:ltr;letter-spacing:0px;line-height:120%;opacity:1&quot;&gt;DisplayCVTemplate()&lt;br/&gt;&lt;/font&gt;" style="vsdxID=26;edgeStyle=none;dashed=1;startArrow=none;endArrow=open;startSize=2;endSize=7;spacingTop=0;spacingBottom=0;spacingLeft=0;spacingRight=0;verticalAlign=middle;html=1;labelBackgroundColor=#ffffff;rounded=0;align=center;exitX=0.5047619047619047;exitY=3.8333333333333335;exitDx=0;exitDy=0;exitPerimeter=0;entryX=0.5039370078740157;entryY=3.8333333333333335;entryDx=0;entryDy=0;entryPerimeter=0;" parent="1" source="7" target="2" edge="1">
          <mxGeometry relative="1" as="geometry">
            <mxPoint x="-1" as="offset" />
            <Array as="points" />
          </mxGeometry>
        </mxCell>
        <mxCell id="43" value="&lt;font style=&quot;font-size:9px;font-family:Arial;color:#000000;direction:ltr;letter-spacing:0px;line-height:120%;opacity:1&quot;&gt;SelectTemplate(cv)&lt;br/&gt;&lt;/font&gt;" style="vsdxID=21;edgeStyle=none;startArrow=none;endArrow=block;startSize=2;endSize=7;spacingTop=0;spacingBottom=0;spacingLeft=0;spacingRight=0;verticalAlign=middle;html=1;labelBackgroundColor=#ffffff;rounded=0;align=center;exitX=0.5039370078740157;exitY=1.7222222222222223;exitDx=0;exitDy=0;exitPerimeter=0;entryX=0.5047619047619047;entryY=1.7222222222222223;entryDx=0;entryDy=0;entryPerimeter=0;" parent="1" source="2" target="7" edge="1">
          <mxGeometry relative="1" as="geometry">
            <mxPoint as="offset" />
            <Array as="points" />
          </mxGeometry>
        </mxCell>
        <mxCell id="44" value="&lt;font style=&quot;font-size:9px;font-family:Arial;color:#000000;direction:ltr;letter-spacing:0px;line-height:120%;opacity:1&quot;&gt;FetchCVTemplate()&lt;br/&gt;&lt;/font&gt;" style="vsdxID=23;edgeStyle=none;startArrow=none;endArrow=block;startSize=2;endSize=7;spacingTop=0;spacingBottom=0;spacingLeft=0;spacingRight=0;verticalAlign=middle;html=1;labelBackgroundColor=#ffffff;rounded=0;align=center;exitX=0.5047619047619047;exitY=2.4166666666666665;exitDx=0;exitDy=0;exitPerimeter=0;entryX=0.5047619047619047;entryY=2.4166666666666665;entryDx=0;entryDy=0;entryPerimeter=0;" parent="1" source="7" target="12" edge="1">
          <mxGeometry relative="1" as="geometry">
            <mxPoint x="-1" as="offset" />
            <Array as="points" />
          </mxGeometry>
        </mxCell>
        <mxCell id="45" value="&lt;font style=&quot;font-size:9px;font-family:Arial;color:#000000;direction:ltr;letter-spacing:0px;line-height:120%;opacity:1&quot;&gt;ReturnCVTemplate()&lt;br/&gt;&lt;/font&gt;" style="vsdxID=24;edgeStyle=none;dashed=1;startArrow=none;endArrow=open;startSize=2;endSize=7;spacingTop=0;spacingBottom=0;spacingLeft=0;spacingRight=0;verticalAlign=middle;html=1;labelBackgroundColor=#ffffff;rounded=0;align=center;exitX=0.5047619047619047;exitY=3.111111111111111;exitDx=0;exitDy=0;exitPerimeter=0;entryX=0.5047619047619047;entryY=3.111111111111111;entryDx=0;entryDy=0;entryPerimeter=0;" parent="1" source="12" target="7" edge="1">
          <mxGeometry relative="1" as="geometry">
            <mxPoint as="offset" />
            <Array as="points" />
          </mxGeometry>
        </mxCell>
        <mxCell id="46" value="&lt;font style=&quot;font-size:9px;font-family:Arial;color:#000000;direction:ltr;letter-spacing:0px;line-height:120%;opacity:1&quot;&gt;SelectApplicantName()&lt;br/&gt;&lt;/font&gt;" style="vsdxID=25;edgeStyle=none;startArrow=none;endArrow=block;startSize=2;endSize=7;spacingTop=0;spacingBottom=0;spacingLeft=0;spacingRight=0;verticalAlign=middle;html=1;labelBackgroundColor=#ffffff;rounded=0;align=center;exitX=0.5039370078740157;exitY=4.527777777777778;exitDx=0;exitDy=0;exitPerimeter=0;entryX=0.5047619047619047;entryY=4.527777777777778;entryDx=0;entryDy=0;entryPerimeter=0;" parent="1" source="2" target="7" edge="1">
          <mxGeometry relative="1" as="geometry">
            <mxPoint as="offset" />
            <Array as="points" />
          </mxGeometry>
        </mxCell>
      </root>
    </mxGraphModel>
  </diagram>
  <diagram name="Interview Feedback" id="Interview_Feedback">
    <mxGraphModel dx="1554" dy="771" grid="1" gridSize="10" guides="1" tooltips="1" connect="1" arrows="1" fold="1" page="1" pageScale="1" pageWidth="1080" pageHeight="1240" math="0" shadow="0">
      <root>
        <mxCell id="0" />
        <mxCell id="1" value="Connector" parent="0" />
        <mxCell id="2" style="vsdxID=1;fillColor=#FFFFFF;gradientColor=none;shape=stencil(nZBLDoAgDERP0z3SIyjew0SURgSD+Lu9kMZoXLhwN9O+tukAlrNpJg1SzDH4QW/URgNYgZTkjA4UkwJUgGXng+6DX1zLfmoymdXo17xh5zmRJ6Q42BWCfc2oJfdAr+Yv+AP9Cb7OJ3H/2JG1HNGz/84klThPVCc=);labelBackgroundColor=none;rounded=0;html=1;whiteSpace=wrap;" parent="1" vertex="1">
          <mxGeometry x="268" y="78" width="127" height="36" as="geometry" />
        </mxCell>
        <mxCell id="3" style="vsdxID=2;fillColor=#FFFFFF;gradientColor=none;shape=stencil(nZBLDoAgDERP0z3SIyjew0SURgSD+Lu9kMZoXLhwN9O+tukAlrNpJg1SzDH4QW/URgNYgZTkjA4UkwJUgGXng+6DX1zLfmoymdXo17xh5zmRJ6Q42BWCfc2oJfdAr+Yv+AP9Cb7OJ3H/2JG1HNGz/84klThPVCc=);labelBackgroundColor=none;rounded=0;html=1;whiteSpace=wrap;" parent="2" vertex="1">
          <mxGeometry x="27" width="72" height="36" as="geometry" />
        </mxCell>
        <mxCell id="4" style="vsdxID=3;fillColor=#FFFFFF;gradientColor=none;shape=stencil(tZTNDoIwDICfZkeSsQXFM+J7LDJgcTJSpuDbu6USgQhBord2/dr1LyU8aUpRS8JoY8FcZKsyWxJ+JIypqpSgrJMITwlPcgOyAHOrMtRr4UkvXc3dR+jQj1HvwugD1ZCifkJWq2qejdaj+wV0K8kXyHCMsmgePaxH++asy2B9XfFmdGkE8ReTjbazux+FXV7E8dLyKTtEBZydCSabAH3HUO1GrZ4Eol0gOtUEYKywylSj7dMCChm4T4Jci+Llh6amlbIePG9O63N9f0nLCe/TkCut8bIM7dNT4p7wDPH0CQ==);labelBackgroundColor=none;rounded=0;html=1;whiteSpace=wrap;" parent="2" vertex="1">
          <mxGeometry x="51" y="-53" width="24" height="48" as="geometry" />
        </mxCell>
        <mxCell id="5" style="vsdxID=5;edgeStyle=none;dashed=1;startArrow=none;endArrow=none;startSize=5;endSize=5;spacingTop=0;spacingBottom=0;spacingLeft=0;spacingRight=0;verticalAlign=middle;html=1;labelBackgroundColor=#ffffff;rounded=0;" parent="2" edge="1">
          <mxGeometry relative="1" as="geometry">
            <Array as="points" />
            <mxPoint x="63" y="36" as="sourcePoint" />
            <mxPoint x="63" y="932" as="targetPoint" />
          </mxGeometry>
        </mxCell>
        <mxCell id="6" value="&lt;font style=&quot;font-size:16px;font-family:Arial;color:#000000;direction:ltr;letter-spacing:0px;line-height:120%;opacity:1&quot;&gt;&lt;b&gt;Employee&lt;br/&gt;&lt;/b&gt;&lt;/font&gt;" style="text;vsdxID=1;fillColor=none;gradientColor=none;labelBackgroundColor=none;rounded=0;html=1;whiteSpace=wrap;verticalAlign=middle;align=center;strokeColor=none;;html=1;" parent="2" vertex="1">
          <mxGeometry width="127.2" height="36" as="geometry" />
        </mxCell>
        <mxCell id="7" style="vsdxID=11;fillColor=#FFFFFF;gradientColor=none;shape=stencil(nZBLDoAgDERP0z3SIyjew0SURgSD+Lu9kMZoXLhwN9O+tukAlrNpJg1SzDH4QW/URgNYgZTkjA4UkwJUgGXng+6DX1zLfmoymdXo17xh5zmRJ6Q42BWCfc2oJfdAr+Yv+AP9Cb7OJ3H/2JG1HNGz/84klThPVCc=);labelBackgroundColor=none;rounded=0;html=1;whiteSpace=wrap;" parent="1" vertex="1">
          <mxGeometry x="511" y="78" width="105" height="36" as="geometry" />
        </mxCell>
        <mxCell id="8" style="vsdxID=12;fillColor=#FFFFFF;gradientColor=none;shape=stencil(nZBLDoAgDERP0z3SIyjew0SURgSD+Lu9kMZoXLhwN9O+tukAlrNpJg1SzDH4QW/URgNYgZTkjA4UkwJUgGXng+6DX1zLfmoymdXo17xh5zmRJ6Q42BWCfc2oJfdAr+Yv+AP9Cb7OJ3H/2JG1HNGz/84klThPVCc=);labelBackgroundColor=none;rounded=0;html=1;whiteSpace=wrap;" parent="7" vertex="1">
          <mxGeometry x="16" width="72" height="36" as="geometry" />
        </mxCell>
        <mxCell id="9" style="vsdxID=13;fillColor=#FFFFFF;gradientColor=none;shape=stencil(1VFBDsIgEHwNRxKE+IJa/7GxSyFiaRa07e+FLImtB+/eZnZmdgkjTJcczCi0SpniHRc/ZCfMRWjtJ4fkc0HC9MJ0NhKOFJ/TwHyG6qzoEV91w8q5s6oRrTamJ8X8yl6gW9GoeZuVtgP9vUitElafJMUM2cfpEA1AI8pyRNoAYwuylBbEeTf+h2cV8Plm60Pglvb6dy1lxJWa/g0=);labelBackgroundColor=none;rounded=0;html=1;whiteSpace=wrap;" parent="7" vertex="1">
          <mxGeometry x="40" y="-5" width="24" height="1" as="geometry" />
        </mxCell>
        <mxCell id="10" style="vsdxID=15;edgeStyle=none;dashed=1;startArrow=none;endArrow=none;startSize=5;endSize=5;spacingTop=0;spacingBottom=0;spacingLeft=0;spacingRight=0;verticalAlign=middle;html=1;labelBackgroundColor=#ffffff;rounded=0;" parent="7" edge="1">
          <mxGeometry relative="1" as="geometry">
            <Array as="points" />
            <mxPoint x="52" y="36" as="sourcePoint" />
            <mxPoint x="52" y="932" as="targetPoint" />
          </mxGeometry>
        </mxCell>
        <mxCell id="11" value="&lt;font style=&quot;font-size:16px;font-family:Arial;color:#000000;direction:ltr;letter-spacing:0px;line-height:120%;opacity:1&quot;&gt;&lt;b&gt;Template&lt;br/&gt;&lt;/b&gt;&lt;/font&gt;" style="text;vsdxID=11;fillColor=none;gradientColor=none;labelBackgroundColor=none;rounded=0;html=1;whiteSpace=wrap;verticalAlign=middle;align=center;strokeColor=none;;html=1;" parent="7" vertex="1">
          <mxGeometry width="105.9" height="36" as="geometry" />
        </mxCell>
        <mxCell id="12" style="vsdxID=16;fillColor=#FFFFFF;gradientColor=none;shape=stencil(nZBLDoAgDERP0z3SIyjew0SURgSD+Lu9kMZoXLhwN9O+tukAlrNpJg1SzDH4QW/URgNYgZTkjA4UkwJUgGXng+6DX1zLfmoymdXo17xh5zmRJ6Q42BWCfc2oJfdAr+Yv+AP9Cb7OJ3H/2JG1HNGz/84klThPVCc=);labelBackgroundColor=none;rounded=0;html=1;whiteSpace=wrap;" parent="1" vertex="1">
          <mxGeometry x="745" y="78" width="105" height="36" as="geometry" />
        </mxCell>
        <mxCell id="13" style="vsdxID=17;fillColor=#FFFFFF;gradientColor=none;shape=stencil(nZBLDoAgDERP0z3SIyjew0SURgSD+Lu9kMZoXLhwN9O+tukAlrNpJg1SzDH4QW/URgNYgZTkjA4UkwJUgGXng+6DX1zLfmoymdXo17xh5zmRJ6Q42BWCfc2oJfdAr+Yv+AP9Cb7OJ3H/2JG1HNGz/84klThPVCc=);labelBackgroundColor=none;rounded=0;html=1;whiteSpace=wrap;" parent="12" vertex="1">
          <mxGeometry x="16" width="72" height="36" as="geometry" />
        </mxCell>
        <mxCell id="14" style="vsdxID=18;fillColor=#FFFFFF;gradientColor=none;shape=stencil(1VFBDsIgEHwNRxKE+IJa/7GxSyFiaRa07e+FLImtB+/eZnZmdgkjTJcczCi0SpniHRc/ZCfMRWjtJ4fkc0HC9MJ0NhKOFJ/TwHyG6qzoEV91w8q5s6oRrTamJ8X8yl6gW9GoeZuVtgP9vUitElafJMUM2cfpEA1AI8pyRNoAYwuylBbEeTf+h2cV8Plm60Pglvb6dy1lxJWa/g0=);labelBackgroundColor=none;rounded=0;html=1;whiteSpace=wrap;" parent="12" vertex="1">
          <mxGeometry x="40" y="-5" width="24" height="1" as="geometry" />
        </mxCell>
        <mxCell id="15" style="vsdxID=20;edgeStyle=none;dashed=1;startArrow=none;endArrow=none;startSize=5;endSize=5;spacingTop=0;spacingBottom=0;spacingLeft=0;spacingRight=0;verticalAlign=middle;html=1;labelBackgroundColor=#ffffff;rounded=0;" parent="12" edge="1">
          <mxGeometry relative="1" as="geometry">
            <Array as="points" />
            <mxPoint x="52" y="36" as="sourcePoint" />
            <mxPoint x="52" y="933" as="targetPoint" />
          </mxGeometry>
        </mxCell>
        <mxCell id="16" value="&lt;font style=&quot;font-size:16px;font-family:Arial;color:#000000;direction:ltr;letter-spacing:0px;line-height:120%;opacity:1&quot;&gt;&lt;b&gt;Program&lt;br/&gt;&lt;/b&gt;&lt;/font&gt;" style="text;vsdxID=16;fillColor=none;gradientColor=none;labelBackgroundColor=none;rounded=0;html=1;whiteSpace=wrap;verticalAlign=middle;align=center;strokeColor=none;;html=1;" parent="12" vertex="1">
          <mxGeometry width="105.9" height="36" as="geometry" />
        </mxCell>
        <mxCell id="17" style="vsdxID=47;fillColor=#FFFFFF;gradientColor=none;shape=stencil(nZBLDoAgDERP0z3SIyjew0SURgSD+Lu9kMZoXLhwN9O+tukAlrNpJg1SzDH4QW/URgNYgZTkjA4UkwJUgGXng+6DX1zLfmoymdXo17xh5zmRJ6Q42BWCfc2oJfdAr+Yv+AP9Cb7OJ3H/2JG1HNGz/84klThPVCc=);labelBackgroundColor=none;rounded=0;html=1;whiteSpace=wrap;" parent="1" vertex="1">
          <mxGeometry x="25" y="78" width="127" height="36" as="geometry" />
        </mxCell>
        <mxCell id="18" style="vsdxID=48;fillColor=#FFFFFF;gradientColor=none;shape=stencil(nZBLDoAgDERP0z3SIyjew0SURgSD+Lu9kMZoXLhwN9O+tukAlrNpJg1SzDH4QW/URgNYgZTkjA4UkwJUgGXng+6DX1zLfmoymdXo17xh5zmRJ6Q42BWCfc2oJfdAr+Yv+AP9Cb7OJ3H/2JG1HNGz/84klThPVCc=);labelBackgroundColor=none;rounded=0;html=1;whiteSpace=wrap;" parent="17" vertex="1">
          <mxGeometry x="27" width="72" height="36" as="geometry" />
        </mxCell>
        <mxCell id="19" style="vsdxID=49;fillColor=#FFFFFF;gradientColor=none;shape=stencil(tZTNDoIwDICfZkeSsQXFM+J7LDJgcTJSpuDbu6USgQhBord2/dr1LyU8aUpRS8JoY8FcZKsyWxJ+JIypqpSgrJMITwlPcgOyAHOrMtRr4UkvXc3dR+jQj1HvwugD1ZCifkJWq2qejdaj+wV0K8kXyHCMsmgePaxH++asy2B9XfFmdGkE8ReTjbazux+FXV7E8dLyKTtEBZydCSabAH3HUO1GrZ4Eol0gOtUEYKywylSj7dMCChm4T4Jci+Llh6amlbIePG9O63N9f0nLCe/TkCut8bIM7dNT4p7wDPH0CQ==);labelBackgroundColor=none;rounded=0;html=1;whiteSpace=wrap;" parent="17" vertex="1">
          <mxGeometry x="51" y="-53" width="24" height="48" as="geometry" />
        </mxCell>
        <mxCell id="20" style="vsdxID=51;edgeStyle=none;dashed=1;startArrow=none;endArrow=none;startSize=5;endSize=5;spacingTop=0;spacingBottom=0;spacingLeft=0;spacingRight=0;verticalAlign=middle;html=1;labelBackgroundColor=#ffffff;rounded=0;" parent="17" edge="1">
          <mxGeometry relative="1" as="geometry">
            <Array as="points" />
            <mxPoint x="63" y="36" as="sourcePoint" />
            <mxPoint x="63" y="933" as="targetPoint" />
          </mxGeometry>
        </mxCell>
        <mxCell id="21" value="&lt;font style=&quot;font-size:16px;font-family:Arial;color:#000000;direction:ltr;letter-spacing:0px;line-height:120%;opacity:1&quot;&gt;&lt;b&gt;Applicant&lt;br/&gt;&lt;/b&gt;&lt;/font&gt;" style="text;vsdxID=47;fillColor=none;gradientColor=none;labelBackgroundColor=none;rounded=0;html=1;whiteSpace=wrap;verticalAlign=middle;align=center;strokeColor=none;;html=1;" parent="17" vertex="1">
          <mxGeometry width="127.2" height="36" as="geometry" />
        </mxCell>
        <mxCell id="22" value="&lt;font style=&quot;font-size:11px;font-family:Arial;color:#000000;direction:ltr;letter-spacing:0px;line-height:120%;opacity:1&quot;&gt;ReceiveEmail(interviewpdf)&lt;br/&gt;&lt;/font&gt;" style="vsdxID=52;edgeStyle=none;dashed=1;startArrow=none;endArrow=open;startSize=2;endSize=7;spacingTop=0;spacingBottom=0;spacingLeft=0;spacingRight=0;verticalAlign=middle;html=1;labelBackgroundColor=#ffffff;rounded=0;align=center;" parent="1" edge="1">
          <mxGeometry relative="1" as="geometry">
            <mxPoint x="-1" as="offset" />
            <Array as="points" />
            <mxPoint x="564" y="880" as="sourcePoint" />
            <mxPoint x="89" y="880" as="targetPoint" />
          </mxGeometry>
        </mxCell>
        <mxCell id="23" value="&lt;font style=&quot;font-size:11px;font-family:Arial;color:#000000;direction:ltr;letter-spacing:0px;line-height:120%;opacity:1&quot;&gt;SendPDFAsEmail(applicantemail)&lt;br/&gt;&lt;/font&gt;" style="vsdxID=45;edgeStyle=none;dashed=1;startArrow=none;endArrow=open;startSize=2;endSize=7;spacingTop=0;spacingBottom=0;spacingLeft=0;spacingRight=0;verticalAlign=middle;html=1;labelBackgroundColor=#ffffff;rounded=0;align=center;" parent="1" edge="1">
          <mxGeometry relative="1" as="geometry">
            <mxPoint as="offset" />
            <Array as="points" />
            <mxPoint x="798" y="840" as="sourcePoint" />
            <mxPoint x="564" y="840" as="targetPoint" />
          </mxGeometry>
        </mxCell>
        <mxCell id="24" value="&lt;font style=&quot;font-size:11px;font-family:Arial;color:#000000;direction:ltr;letter-spacing:0px;line-height:120%;opacity:1&quot;&gt;CreatePDF()&lt;br/&gt;&lt;/font&gt;" style="vsdxID=44;edgeStyle=none;startArrow=none;endArrow=block;startSize=2;endSize=7;spacingTop=0;spacingBottom=0;spacingLeft=0;spacingRight=0;verticalAlign=middle;html=1;labelBackgroundColor=#ffffff;rounded=0;align=center;" parent="1" edge="1">
          <mxGeometry relative="1" as="geometry">
            <mxPoint x="-16" y="-1" as="offset" />
            <Array as="points">
              <mxPoint x="823" y="720" />
              <mxPoint x="823" y="790" />
            </Array>
            <mxPoint x="798" y="720" as="sourcePoint" />
            <mxPoint x="798" y="790" as="targetPoint" />
          </mxGeometry>
        </mxCell>
        <mxCell id="25" value="&lt;font style=&quot;font-size:11px;font-family:Arial;color:#000000;direction:ltr;letter-spacing:0px;line-height:120%;opacity:1&quot;&gt;SendFeedbackData(interviewfeedback)&lt;br/&gt;&lt;/font&gt;" style="vsdxID=43;edgeStyle=none;startArrow=none;endArrow=block;startSize=2;endSize=7;spacingTop=0;spacingBottom=0;spacingLeft=0;spacingRight=0;verticalAlign=middle;html=1;labelBackgroundColor=#ffffff;rounded=0;align=center;" parent="1" edge="1">
          <mxGeometry relative="1" as="geometry">
            <mxPoint x="-1" as="offset" />
            <Array as="points" />
            <mxPoint x="564" y="680" as="sourcePoint" />
            <mxPoint x="798" y="680" as="targetPoint" />
          </mxGeometry>
        </mxCell>
        <mxCell id="26" value="&lt;font style=&quot;font-size:9px;font-family:Arial;color:#000000;direction:ltr;letter-spacing:0px;line-height:120%;opacity:1&quot;&gt;ClickCreatePDFButton(interviewfeedback)&lt;br/&gt;&lt;/font&gt;" style="vsdxID=42;edgeStyle=none;startArrow=none;endArrow=block;startSize=2;endSize=7;spacingTop=0;spacingBottom=0;spacingLeft=0;spacingRight=0;verticalAlign=middle;html=1;labelBackgroundColor=#ffffff;rounded=0;align=center;" parent="1" edge="1">
          <mxGeometry relative="1" as="geometry">
            <mxPoint as="offset" />
            <Array as="points" />
            <mxPoint x="332" y="640" as="sourcePoint" />
            <mxPoint x="564" y="640" as="targetPoint" />
          </mxGeometry>
        </mxCell>
        <mxCell id="27" value="&lt;font style=&quot;font-size:9px;font-family:Arial;color:#000000;direction:ltr;letter-spacing:0px;line-height:120%;opacity:1&quot;&gt;DisplayFurtherComments()&lt;br/&gt;&lt;/font&gt;" style="vsdxID=41;edgeStyle=none;dashed=1;startArrow=none;endArrow=open;startSize=2;endSize=7;spacingTop=0;spacingBottom=0;spacingLeft=0;spacingRight=0;verticalAlign=middle;html=1;labelBackgroundColor=#ffffff;rounded=0;align=center;" parent="1" edge="1">
          <mxGeometry relative="1" as="geometry">
            <mxPoint x="-1" as="offset" />
            <Array as="points" />
            <mxPoint x="564" y="580" as="sourcePoint" />
            <mxPoint x="332" y="580" as="targetPoint" />
          </mxGeometry>
        </mxCell>
        <mxCell id="28" value="&lt;font style=&quot;font-size:9px;font-family:Arial;color:#000000;direction:ltr;letter-spacing:0px;line-height:120%;opacity:1&quot;&gt;SetComments()&lt;br/&gt;&lt;/font&gt;" style="vsdxID=40;edgeStyle=none;startArrow=none;endArrow=block;startSize=2;endSize=7;spacingTop=0;spacingBottom=0;spacingLeft=0;spacingRight=0;verticalAlign=middle;html=1;labelBackgroundColor=#ffffff;rounded=0;align=center;" parent="1" edge="1">
          <mxGeometry x="0.0781" relative="1" as="geometry">
            <mxPoint as="offset" />
            <Array as="points">
              <mxPoint x="589" y="480" />
              <mxPoint x="589" y="550" />
            </Array>
            <mxPoint x="560" y="480" as="sourcePoint" />
            <mxPoint x="560" y="550" as="targetPoint" />
          </mxGeometry>
        </mxCell>
        <mxCell id="29" value="&lt;font style=&quot;font-size:9px;font-family:Arial;color:#000000;direction:ltr;letter-spacing:0px;line-height:120%;opacity:1&quot;&gt;AddFurtherComments()&lt;br/&gt;&lt;/font&gt;" style="vsdxID=38;edgeStyle=none;startArrow=none;endArrow=block;startSize=2;endSize=7;spacingTop=0;spacingBottom=0;spacingLeft=0;spacingRight=0;verticalAlign=middle;html=1;labelBackgroundColor=#ffffff;rounded=0;align=center;" parent="1" edge="1">
          <mxGeometry relative="1" as="geometry">
            <mxPoint as="offset" />
            <Array as="points" />
            <mxPoint x="332" y="440" as="sourcePoint" />
            <mxPoint x="564" y="440" as="targetPoint" />
          </mxGeometry>
        </mxCell>
        <mxCell id="31" parent="1" vertex="1">
          <mxGeometry x="564" y="619" as="geometry" />
        </mxCell>
        <mxCell id="35" parent="1" vertex="1">
          <mxGeometry x="564" y="492" as="geometry" />
        </mxCell>
        <mxCell id="38" value="&lt;font style=&quot;font-size:9px;font-family:Arial;color:#000000;direction:ltr;letter-spacing:0px;line-height:120%;opacity:1&quot;&gt;DisplaySelectedApplicant()&lt;br/&gt;&lt;/font&gt;" style="vsdxID=30;edgeStyle=none;dashed=1;startArrow=none;endArrow=open;startSize=2;endSize=7;spacingTop=0;spacingBottom=0;spacingLeft=0;spacingRight=0;verticalAlign=middle;html=1;labelBackgroundColor=#ffffff;rounded=0;align=center;exitX=0.5047619047619047;exitY=8.777777777777779;exitDx=0;exitDy=0;exitPerimeter=0;entryX=0.5039370078740157;entryY=8.777777777777779;entryDx=0;entryDy=0;entryPerimeter=0;" parent="1" source="7" target="2" edge="1">
          <mxGeometry relative="1" as="geometry">
            <mxPoint x="-1" as="offset" />
            <Array as="points" />
          </mxGeometry>
        </mxCell>
        <mxCell id="39" value="&lt;font style=&quot;font-size:9px;font-family:Arial;color:#000000;direction:ltr;letter-spacing:0px;line-height:120%;opacity:1&quot;&gt;SetApplicantName()&lt;br/&gt;&lt;/font&gt;" style="vsdxID=29;edgeStyle=none;startArrow=none;endArrow=block;startSize=2;endSize=7;spacingTop=0;spacingBottom=0;spacingLeft=0;spacingRight=0;verticalAlign=middle;html=1;labelBackgroundColor=#ffffff;rounded=0;align=center;exitX=0.5047619047619047;exitY=6.638888888888889;exitDx=0;exitDy=0;exitPerimeter=0;entryX=0.5047619047619047;entryY=8.055555555555555;entryDx=0;entryDy=0;entryPerimeter=0;" parent="1" source="7" target="7" edge="1">
          <mxGeometry relative="1" as="geometry">
            <mxPoint x="-16" y="-1" as="offset" />
            <Array as="points">
              <mxPoint x="589.4" y="317" />
              <mxPoint x="589.4" y="367.8" />
            </Array>
          </mxGeometry>
        </mxCell>
        <mxCell id="40" value="&lt;font style=&quot;font-size:9px;font-family:Arial;color:#000000;direction:ltr;letter-spacing:0px;line-height:120%;opacity:1&quot;&gt;ReturnApplicantNames()&lt;br/&gt;&lt;/font&gt;" style="vsdxID=28;edgeStyle=none;dashed=1;startArrow=none;endArrow=open;startSize=2;endSize=7;spacingTop=0;spacingBottom=0;spacingLeft=0;spacingRight=0;verticalAlign=middle;html=1;labelBackgroundColor=#ffffff;rounded=0;align=center;exitX=0.5047619047619047;exitY=5.944444444444445;exitDx=0;exitDy=0;exitPerimeter=0;entryX=0.5047619047619047;entryY=5.944444444444445;entryDx=0;entryDy=0;entryPerimeter=0;" parent="1" source="12" target="7" edge="1">
          <mxGeometry relative="1" as="geometry">
            <mxPoint as="offset" />
            <Array as="points" />
          </mxGeometry>
        </mxCell>
        <mxCell id="41" value="&lt;font style=&quot;font-size:9px;font-family:Arial;color:#000000;direction:ltr;letter-spacing:0px;line-height:120%;opacity:1&quot;&gt;FetchApplicantNames()&lt;br/&gt;&lt;/font&gt;" style="vsdxID=27;edgeStyle=none;startArrow=none;endArrow=block;startSize=2;endSize=7;spacingTop=0;spacingBottom=0;spacingLeft=0;spacingRight=0;verticalAlign=middle;html=1;labelBackgroundColor=#ffffff;rounded=0;align=center;exitX=0.5047619047619047;exitY=5.25;exitDx=0;exitDy=0;exitPerimeter=0;entryX=0.5047619047619047;entryY=5.25;entryDx=0;entryDy=0;entryPerimeter=0;" parent="1" source="7" target="12" edge="1">
          <mxGeometry relative="1" as="geometry">
            <mxPoint x="-1" as="offset" />
            <Array as="points" />
          </mxGeometry>
        </mxCell>
        <mxCell id="42" value="&lt;font style=&quot;font-size:9px;font-family:Arial;color:#000000;direction:ltr;letter-spacing:0px;line-height:120%;opacity:1&quot;&gt;DisplayInterviewTemplate()&lt;br/&gt;&lt;/font&gt;" style="vsdxID=26;edgeStyle=none;dashed=1;startArrow=none;endArrow=open;startSize=2;endSize=7;spacingTop=0;spacingBottom=0;spacingLeft=0;spacingRight=0;verticalAlign=middle;html=1;labelBackgroundColor=#ffffff;rounded=0;align=center;exitX=0.5047619047619047;exitY=3.8333333333333335;exitDx=0;exitDy=0;exitPerimeter=0;entryX=0.5039370078740157;entryY=3.8333333333333335;entryDx=0;entryDy=0;entryPerimeter=0;" parent="1" source="7" target="2" edge="1">
          <mxGeometry relative="1" as="geometry">
            <mxPoint x="-1" as="offset" />
            <Array as="points" />
          </mxGeometry>
        </mxCell>
        <mxCell id="43" value="&lt;font style=&quot;font-size:9px;font-family:Arial;color:#000000;direction:ltr;letter-spacing:0px;line-height:120%;opacity:1&quot;&gt;SelectTemplate(interview)&lt;br/&gt;&lt;/font&gt;" style="vsdxID=21;edgeStyle=none;startArrow=none;endArrow=block;startSize=2;endSize=7;spacingTop=0;spacingBottom=0;spacingLeft=0;spacingRight=0;verticalAlign=middle;html=1;labelBackgroundColor=#ffffff;rounded=0;align=center;exitX=0.5039370078740157;exitY=1.7222222222222223;exitDx=0;exitDy=0;exitPerimeter=0;entryX=0.5047619047619047;entryY=1.7222222222222223;entryDx=0;entryDy=0;entryPerimeter=0;" parent="1" source="2" target="7" edge="1">
          <mxGeometry relative="1" as="geometry">
            <mxPoint as="offset" />
            <Array as="points" />
          </mxGeometry>
        </mxCell>
        <mxCell id="44" value="&lt;font style=&quot;font-size:9px;font-family:Arial;color:#000000;direction:ltr;letter-spacing:0px;line-height:120%;opacity:1&quot;&gt;FetchInterviewTemplate()&lt;br/&gt;&lt;/font&gt;" style="vsdxID=23;edgeStyle=none;startArrow=none;endArrow=block;startSize=2;endSize=7;spacingTop=0;spacingBottom=0;spacingLeft=0;spacingRight=0;verticalAlign=middle;html=1;labelBackgroundColor=#ffffff;rounded=0;align=center;exitX=0.5047619047619047;exitY=2.4166666666666665;exitDx=0;exitDy=0;exitPerimeter=0;entryX=0.5047619047619047;entryY=2.4166666666666665;entryDx=0;entryDy=0;entryPerimeter=0;" parent="1" source="7" target="12" edge="1">
          <mxGeometry relative="1" as="geometry">
            <mxPoint x="-1" as="offset" />
            <Array as="points" />
          </mxGeometry>
        </mxCell>
        <mxCell id="45" value="&lt;font style=&quot;font-size:9px;font-family:Arial;color:#000000;direction:ltr;letter-spacing:0px;line-height:120%;opacity:1&quot;&gt;ReturnInterviewTemplate()&lt;br/&gt;&lt;/font&gt;" style="vsdxID=24;edgeStyle=none;dashed=1;startArrow=none;endArrow=open;startSize=2;endSize=7;spacingTop=0;spacingBottom=0;spacingLeft=0;spacingRight=0;verticalAlign=middle;html=1;labelBackgroundColor=#ffffff;rounded=0;align=center;exitX=0.5047619047619047;exitY=3.111111111111111;exitDx=0;exitDy=0;exitPerimeter=0;entryX=0.5047619047619047;entryY=3.111111111111111;entryDx=0;entryDy=0;entryPerimeter=0;" parent="1" source="12" target="7" edge="1">
          <mxGeometry relative="1" as="geometry">
            <mxPoint as="offset" />
            <Array as="points" />
          </mxGeometry>
        </mxCell>
        <mxCell id="46" value="&lt;font style=&quot;font-size:9px;font-family:Arial;color:#000000;direction:ltr;letter-spacing:0px;line-height:120%;opacity:1&quot;&gt;SelectApplicantName()&lt;br/&gt;&lt;/font&gt;" style="vsdxID=25;edgeStyle=none;startArrow=none;endArrow=block;startSize=2;endSize=7;spacingTop=0;spacingBottom=0;spacingLeft=0;spacingRight=0;verticalAlign=middle;html=1;labelBackgroundColor=#ffffff;rounded=0;align=center;exitX=0.5039370078740157;exitY=4.527777777777778;exitDx=0;exitDy=0;exitPerimeter=0;entryX=0.5047619047619047;entryY=4.527777777777778;entryDx=0;entryDy=0;entryPerimeter=0;" parent="1" source="2" target="7" edge="1">
          <mxGeometry relative="1" as="geometry">
            <mxPoint as="offset" />
            <Array as="points" />
          </mxGeometry>
        </mxCell>
      </root>
    </mxGraphModel>
  </diagram>
  <diagram name="Add Applicant" id="Add_Applicant">
    <mxGraphModel dx="1554" dy="771" grid="1" gridSize="10" guides="1" tooltips="1" connect="1" arrows="1" fold="1" page="1" pageScale="1" pageWidth="1080" pageHeight="1240" math="0" shadow="0">
      <root>
        <mxCell id="0" />
        <mxCell id="1" value="Connector" parent="0" />
        <mxCell id="2" style="vsdxID=1;fillColor=#FFFFFF;gradientColor=none;shape=stencil(nZBLDoAgDERP0z3SIyjew0SURgSD+Lu9kMZoXLhwN9O+tukAlrNpJg1SzDH4QW/URgNYgZTkjA4UkwJUgGXng+6DX1zLfmoymdXo17xh5zmRJ6Q42BWCfc2oJfdAr+Yv+AP9Cb7OJ3H/2JG1HNGz/84klThPVCc=);labelBackgroundColor=none;rounded=0;html=1;whiteSpace=wrap;" parent="1" vertex="1">
          <mxGeometry x="25" y="78" width="127" height="36" as="geometry" />
        </mxCell>
        <mxCell id="3" style="vsdxID=2;fillColor=#FFFFFF;gradientColor=none;shape=stencil(nZBLDoAgDERP0z3SIyjew0SURgSD+Lu9kMZoXLhwN9O+tukAlrNpJg1SzDH4QW/URgNYgZTkjA4UkwJUgGXng+6DX1zLfmoymdXo17xh5zmRJ6Q42BWCfc2oJfdAr+Yv+AP9Cb7OJ3H/2JG1HNGz/84klThPVCc=);labelBackgroundColor=none;rounded=0;html=1;whiteSpace=wrap;" parent="2" vertex="1">
          <mxGeometry x="27" width="72" height="36" as="geometry" />
        </mxCell>
        <mxCell id="4" style="vsdxID=3;fillColor=#FFFFFF;gradientColor=none;shape=stencil(tZTNDoIwDICfZkeSsQXFM+J7LDJgcTJSpuDbu6USgQhBord2/dr1LyU8aUpRS8JoY8FcZKsyWxJ+JIypqpSgrJMITwlPcgOyAHOrMtRr4UkvXc3dR+jQj1HvwugD1ZCifkJWq2qejdaj+wV0K8kXyHCMsmgePaxH++asy2B9XfFmdGkE8ReTjbazux+FXV7E8dLyKTtEBZydCSabAH3HUO1GrZ4Eol0gOtUEYKywylSj7dMCChm4T4Jci+Llh6amlbIePG9O63N9f0nLCe/TkCut8bIM7dNT4p7wDPH0CQ==);labelBackgroundColor=none;rounded=0;html=1;whiteSpace=wrap;" parent="2" vertex="1">
          <mxGeometry x="51" y="-53" width="24" height="48" as="geometry" />
        </mxCell>
        <mxCell id="5" style="vsdxID=5;edgeStyle=none;dashed=1;startArrow=none;endArrow=none;startSize=5;endSize=5;spacingTop=0;spacingBottom=0;spacingLeft=0;spacingRight=0;verticalAlign=middle;html=1;labelBackgroundColor=#ffffff;rounded=0;" parent="2" edge="1">
          <mxGeometry relative="1" as="geometry">
            <Array as="points" />
            <mxPoint x="63" y="36" as="sourcePoint" />
            <mxPoint x="63" y="511" as="targetPoint" />
          </mxGeometry>
        </mxCell>
        <mxCell id="6" value="&lt;font style=&quot;font-size:16px;font-family:Arial;color:#000000;direction:ltr;letter-spacing:0px;line-height:120%;opacity:1&quot;&gt;&lt;b&gt;Administrator&lt;br/&gt;&lt;/b&gt;&lt;/font&gt;" style="text;vsdxID=1;fillColor=none;gradientColor=none;labelBackgroundColor=none;rounded=0;html=1;whiteSpace=wrap;verticalAlign=middle;align=center;strokeColor=none;;html=1;" parent="2" vertex="1">
          <mxGeometry width="127.2" height="36" as="geometry" />
        </mxCell>
        <mxCell id="7" style="vsdxID=11;fillColor=#FFFFFF;gradientColor=none;shape=stencil(nZBLDoAgDERP0z3SIyjew0SURgSD+Lu9kMZoXLhwN9O+tukAlrNpJg1SzDH4QW/URgNYgZTkjA4UkwJUgGXng+6DX1zLfmoymdXo17xh5zmRJ6Q42BWCfc2oJfdAr+Yv+AP9Cb7OJ3H/2JG1HNGz/84klThPVCc=);labelBackgroundColor=none;rounded=0;html=1;whiteSpace=wrap;" parent="1" vertex="1">
          <mxGeometry x="242" y="78" width="127" height="36" as="geometry" />
        </mxCell>
        <mxCell id="8" style="vsdxID=12;fillColor=#FFFFFF;gradientColor=none;shape=stencil(nZBLDoAgDERP0z3SIyjew0SURgSD+Lu9kMZoXLhwN9O+tukAlrNpJg1SzDH4QW/URgNYgZTkjA4UkwJUgGXng+6DX1zLfmoymdXo17xh5zmRJ6Q42BWCfc2oJfdAr+Yv+AP9Cb7OJ3H/2JG1HNGz/84klThPVCc=);labelBackgroundColor=none;rounded=0;html=1;whiteSpace=wrap;" parent="7" vertex="1">
          <mxGeometry x="27" width="72" height="36" as="geometry" />
        </mxCell>
        <mxCell id="9" style="vsdxID=13;fillColor=#FFFFFF;gradientColor=none;shape=stencil(1VFBDsIgEHwNRxKE+IJa/7GxSyFiaRa07e+FLImtB+/eZnZmdgkjTJcczCi0SpniHRc/ZCfMRWjtJ4fkc0HC9MJ0NhKOFJ/TwHyG6qzoEV91w8q5s6oRrTamJ8X8yl6gW9GoeZuVtgP9vUitElafJMUM2cfpEA1AI8pyRNoAYwuylBbEeTf+h2cV8Plm60Pglvb6dy1lxJWa/g0=);labelBackgroundColor=none;rounded=0;html=1;whiteSpace=wrap;" parent="7" vertex="1">
          <mxGeometry x="51" y="-5" width="24" height="1" as="geometry" />
        </mxCell>
        <mxCell id="10" style="vsdxID=15;edgeStyle=none;dashed=1;startArrow=none;endArrow=none;startSize=5;endSize=5;spacingTop=0;spacingBottom=0;spacingLeft=0;spacingRight=0;verticalAlign=middle;html=1;labelBackgroundColor=#ffffff;rounded=0;" parent="7" edge="1">
          <mxGeometry relative="1" as="geometry">
            <Array as="points" />
            <mxPoint x="63" y="36" as="sourcePoint" />
            <mxPoint x="63" y="515" as="targetPoint" />
          </mxGeometry>
        </mxCell>
        <mxCell id="11" value="&lt;font style=&quot;font-size:16px;font-family:Arial;color:#000000;direction:ltr;letter-spacing:0px;line-height:120%;opacity:1&quot;&gt;&lt;b&gt;Program&lt;br/&gt;&lt;/b&gt;&lt;/font&gt;" style="text;vsdxID=11;fillColor=none;gradientColor=none;labelBackgroundColor=none;rounded=0;html=1;whiteSpace=wrap;verticalAlign=middle;align=center;strokeColor=none;;html=1;" parent="7" vertex="1">
          <mxGeometry width="127.2" height="36" as="geometry" />
        </mxCell>
        <mxCell id="12" style="vsdxID=16;fillColor=#FFFFFF;gradientColor=none;shape=stencil(nZBLDoAgDERP0z3SIyjew0SURgSD+Lu9kMZoXLhwN9O+tukAlrNpJg1SzDH4QW/URgNYgZTkjA4UkwJUgGXng+6DX1zLfmoymdXo17xh5zmRJ6Q42BWCfc2oJfdAr+Yv+AP9Cb7OJ3H/2JG1HNGz/84klThPVCc=);labelBackgroundColor=none;rounded=0;html=1;whiteSpace=wrap;" parent="1" vertex="1">
          <mxGeometry x="445" y="78" width="175" height="36" as="geometry" />
        </mxCell>
        <mxCell id="13" style="vsdxID=17;fillColor=#FFFFFF;gradientColor=none;shape=stencil(nZBLDoAgDERP0z3SIyjew0SURgSD+Lu9kMZoXLhwN9O+tukAlrNpJg1SzDH4QW/URgNYgZTkjA4UkwJUgGXng+6DX1zLfmoymdXo17xh5zmRJ6Q42BWCfc2oJfdAr+Yv+AP9Cb7OJ3H/2JG1HNGz/84klThPVCc=);labelBackgroundColor=none;rounded=0;html=1;whiteSpace=wrap;" parent="12" vertex="1">
          <mxGeometry x="51" width="72" height="36" as="geometry" />
        </mxCell>
        <mxCell id="14" style="vsdxID=18;fillColor=#FFFFFF;gradientColor=none;shape=stencil(1VFBDsIgEHwNRxKE+IJa/7GxSyFiaRa07e+FLImtB+/eZnZmdgkjTJcczCi0SpniHRc/ZCfMRWjtJ4fkc0HC9MJ0NhKOFJ/TwHyG6qzoEV91w8q5s6oRrTamJ8X8yl6gW9GoeZuVtgP9vUitElafJMUM2cfpEA1AI8pyRNoAYwuylBbEeTf+h2cV8Plm60Pglvb6dy1lxJWa/g0=);labelBackgroundColor=none;rounded=0;html=1;whiteSpace=wrap;" parent="12" vertex="1">
          <mxGeometry x="75" y="-5" width="24" height="1" as="geometry" />
        </mxCell>
        <mxCell id="15" style="vsdxID=20;edgeStyle=none;dashed=1;startArrow=none;endArrow=none;startSize=5;endSize=5;spacingTop=0;spacingBottom=0;spacingLeft=0;spacingRight=0;verticalAlign=middle;html=1;labelBackgroundColor=#ffffff;rounded=0;" parent="12" edge="1">
          <mxGeometry relative="1" as="geometry">
            <Array as="points" />
            <mxPoint x="87" y="36" as="sourcePoint" />
            <mxPoint x="87" y="520" as="targetPoint" />
          </mxGeometry>
        </mxCell>
        <mxCell id="16" value="&lt;font style=&quot;font-size:16px;font-family:Arial;color:#000000;direction:ltr;letter-spacing:0px;line-height:120%;opacity:1&quot;&gt;&lt;b&gt;Applicant Database&lt;br/&gt;&lt;/b&gt;&lt;/font&gt;" style="text;vsdxID=16;fillColor=none;gradientColor=none;labelBackgroundColor=none;rounded=0;html=1;whiteSpace=wrap;verticalAlign=middle;align=center;strokeColor=none;;html=1;" parent="12" vertex="1">
          <mxGeometry width="175.32" height="36" as="geometry" />
        </mxCell>
        <mxCell id="17" value="&lt;font style=&quot;font-size:11px;font-family:Arial;color:#000000;direction:ltr;letter-spacing:0px;line-height:120%;opacity:1&quot;&gt;GetCurrentDetails(adminname, currentdate)&lt;br/&gt;&lt;/font&gt;" style="vsdxID=39;edgeStyle=none;startArrow=none;endArrow=block;startSize=2;endSize=7;spacingTop=0;spacingBottom=0;spacingLeft=0;spacingRight=0;verticalAlign=middle;html=1;labelBackgroundColor=#ffffff;rounded=0;align=center;exitX=0.5039370078740157;exitY=3.111111111111111;exitDx=0;exitDy=0;exitPerimeter=0;entryX=0.5039370078740157;entryY=4.527777777777778;entryDx=0;entryDy=0;entryPerimeter=0;" parent="1" source="7" target="7" edge="1">
          <mxGeometry relative="1" as="geometry">
            <mxPoint x="-16" y="-1" as="offset" />
            <Array as="points">
              <mxPoint x="331.4" y="190" />
              <mxPoint x="331.4" y="240.8" />
            </Array>
          </mxGeometry>
        </mxCell>
        <mxCell id="18" value="&lt;font style=&quot;font-size:9px;font-family:Arial;color:#000000;direction:ltr;letter-spacing:0px;line-height:120%;opacity:1&quot;&gt;EnterApplicantDetails(name, email,&lt;br/&gt;phonenumber, dateofbirth,&lt;br/&gt;applicationformat)&lt;br/&gt;&lt;/font&gt;" style="vsdxID=32;edgeStyle=none;startArrow=none;endArrow=block;startSize=2;endSize=7;spacingTop=0;spacingBottom=0;spacingLeft=0;spacingRight=0;verticalAlign=middle;html=1;labelBackgroundColor=#ffffff;rounded=0;align=center;exitX=0.5039370078740157;exitY=2.4166666666666665;exitDx=0;exitDy=0;exitPerimeter=0;entryX=0.5039370078740157;entryY=2.4166666666666665;entryDx=0;entryDy=0;entryPerimeter=0;" parent="1" source="2" target="7" edge="1">
          <mxGeometry relative="1" as="geometry">
            <mxPoint as="offset" />
            <Array as="points" />
          </mxGeometry>
        </mxCell>
        <mxCell id="19" value="&lt;font style=&quot;font-size:11px;font-family:Arial;color:#000000;direction:ltr;letter-spacing:0px;line-height:120%;opacity:1&quot;&gt;SubmitApplicant(name, email,&lt;br/&gt;phonenumber, dateofbirth,&lt;br/&gt;applicationformat, adminname,&lt;br/&gt;currentdate)&lt;br/&gt;&lt;/font&gt;" style="vsdxID=21;edgeStyle=none;startArrow=none;endArrow=block;startSize=2;endSize=7;spacingTop=0;spacingBottom=0;spacingLeft=0;spacingRight=0;verticalAlign=middle;html=1;labelBackgroundColor=#ffffff;rounded=0;align=center;exitX=0.5039370078740157;exitY=5.25;exitDx=0;exitDy=0;exitPerimeter=0;entryX=0.49714285714285716;entryY=5.25;entryDx=0;entryDy=0;entryPerimeter=0;" parent="1" source="7" target="12" edge="1">
          <mxGeometry relative="1" as="geometry">
            <mxPoint as="offset" />
            <Array as="points" />
          </mxGeometry>
        </mxCell>
        <mxCell id="20" value="&lt;font style=&quot;font-size:11px;font-family:Arial;color:#000000;direction:ltr;letter-spacing:0px;line-height:120%;opacity:1&quot;&gt;AddApplicant(name, email,&lt;br/&gt;phonenumber, dateofbirth,&lt;br/&gt;applicationformat, adminname,&lt;br/&gt;currentdate)&lt;br/&gt;&lt;/font&gt;" style="vsdxID=23;edgeStyle=none;startArrow=none;endArrow=block;startSize=2;endSize=7;spacingTop=0;spacingBottom=0;spacingLeft=0;spacingRight=0;verticalAlign=middle;html=1;labelBackgroundColor=#ffffff;rounded=0;align=center;exitX=0.49714285714285716;exitY=5.944444444444445;exitDx=0;exitDy=0;exitPerimeter=0;entryX=0.49714285714285716;entryY=8.777777777777779;entryDx=0;entryDy=0;entryPerimeter=0;" parent="1" source="12" target="12" edge="1">
          <mxGeometry relative="1" as="geometry">
            <mxPoint x="-16" as="offset" />
            <Array as="points">
              <mxPoint x="557.4" y="292" />
              <mxPoint x="557.4" y="393.6" />
            </Array>
          </mxGeometry>
        </mxCell>
        <mxCell id="21" value="&lt;font style=&quot;font-size:11px;font-family:Arial;color:#000000;direction:ltr;letter-spacing:0px;line-height:120%;opacity:1&quot;&gt;GetResult()&lt;br/&gt;&lt;/font&gt;" style="vsdxID=24;edgeStyle=none;dashed=1;startArrow=none;endArrow=open;startSize=2;endSize=7;spacingTop=0;spacingBottom=0;spacingLeft=0;spacingRight=0;verticalAlign=middle;html=1;labelBackgroundColor=#ffffff;rounded=0;align=center;exitX=0.49714285714285716;exitY=9.472222222222221;exitDx=0;exitDy=0;exitPerimeter=0;entryX=0.5039370078740157;entryY=9.472222222222221;entryDx=0;entryDy=0;entryPerimeter=0;" parent="1" source="12" target="7" edge="1">
          <mxGeometry relative="1" as="geometry">
            <mxPoint x="-1" as="offset" />
            <Array as="points" />
          </mxGeometry>
        </mxCell>
        <mxCell id="22" value="&lt;font style=&quot;font-size:11px;font-family:Arial;color:#000000;direction:ltr;letter-spacing:0px;line-height:120%;opacity:1&quot;&gt;DisplayResult()&lt;br/&gt;&lt;/font&gt;" style="vsdxID=27;edgeStyle=none;dashed=1;startArrow=none;endArrow=open;startSize=2;endSize=7;spacingTop=0;spacingBottom=0;spacingLeft=0;spacingRight=0;verticalAlign=middle;html=1;labelBackgroundColor=#ffffff;rounded=0;align=center;exitX=0.5039370078740157;exitY=10.166666666666666;exitDx=0;exitDy=0;exitPerimeter=0;entryX=0.5039370078740157;entryY=10.166666666666666;entryDx=0;entryDy=0;entryPerimeter=0;" parent="1" source="7" target="2" edge="1">
          <mxGeometry relative="1" as="geometry">
            <mxPoint x="-1" as="offset" />
            <Array as="points" />
          </mxGeometry>
        </mxCell>
      </root>
    </mxGraphModel>
  </diagram>
  <diagram name="Add Employee" id="Add_Employee">
    <mxGraphModel dx="1554" dy="771" grid="1" gridSize="10" guides="1" tooltips="1" connect="1" arrows="1" fold="1" page="1" pageScale="1" pageWidth="1080" pageHeight="1240" math="0" shadow="0">
      <root>
        <mxCell id="0" />
        <mxCell id="1" value="Connector" parent="0" />
        <mxCell id="2" style="vsdxID=1;fillColor=#FFFFFF;gradientColor=none;shape=stencil(nZBLDoAgDERP0z3SIyjew0SURgSD+Lu9kMZoXLhwN9O+tukAlrNpJg1SzDH4QW/URgNYgZTkjA4UkwJUgGXng+6DX1zLfmoymdXo17xh5zmRJ6Q42BWCfc2oJfdAr+Yv+AP9Cb7OJ3H/2JG1HNGz/84klThPVCc=);labelBackgroundColor=none;rounded=0;html=1;whiteSpace=wrap;" parent="1" vertex="1">
          <mxGeometry x="25" y="78" width="127" height="36" as="geometry" />
        </mxCell>
        <mxCell id="3" style="vsdxID=2;fillColor=#FFFFFF;gradientColor=none;shape=stencil(nZBLDoAgDERP0z3SIyjew0SURgSD+Lu9kMZoXLhwN9O+tukAlrNpJg1SzDH4QW/URgNYgZTkjA4UkwJUgGXng+6DX1zLfmoymdXo17xh5zmRJ6Q42BWCfc2oJfdAr+Yv+AP9Cb7OJ3H/2JG1HNGz/84klThPVCc=);labelBackgroundColor=none;rounded=0;html=1;whiteSpace=wrap;" parent="2" vertex="1">
          <mxGeometry x="27" width="72" height="36" as="geometry" />
        </mxCell>
        <mxCell id="4" style="vsdxID=3;fillColor=#FFFFFF;gradientColor=none;shape=stencil(tZTNDoIwDICfZkeSsQXFM+J7LDJgcTJSpuDbu6USgQhBord2/dr1LyU8aUpRS8JoY8FcZKsyWxJ+JIypqpSgrJMITwlPcgOyAHOrMtRr4UkvXc3dR+jQj1HvwugD1ZCifkJWq2qejdaj+wV0K8kXyHCMsmgePaxH++asy2B9XfFmdGkE8ReTjbazux+FXV7E8dLyKTtEBZydCSabAH3HUO1GrZ4Eol0gOtUEYKywylSj7dMCChm4T4Jci+Llh6amlbIePG9O63N9f0nLCe/TkCut8bIM7dNT4p7wDPH0CQ==);labelBackgroundColor=none;rounded=0;html=1;whiteSpace=wrap;" parent="2" vertex="1">
          <mxGeometry x="51" y="-53" width="24" height="48" as="geometry" />
        </mxCell>
        <mxCell id="5" style="vsdxID=5;edgeStyle=none;dashed=1;startArrow=none;endArrow=none;startSize=5;endSize=5;spacingTop=0;spacingBottom=0;spacingLeft=0;spacingRight=0;verticalAlign=middle;html=1;labelBackgroundColor=#ffffff;rounded=0;" parent="2" edge="1">
          <mxGeometry relative="1" as="geometry">
            <Array as="points" />
            <mxPoint x="63" y="36" as="sourcePoint" />
            <mxPoint x="63" y="511" as="targetPoint" />
          </mxGeometry>
        </mxCell>
        <mxCell id="6" value="&lt;font style=&quot;font-size:16px;font-family:Arial;color:#000000;direction:ltr;letter-spacing:0px;line-height:120%;opacity:1&quot;&gt;&lt;b&gt;Administrator&lt;br/&gt;&lt;/b&gt;&lt;/font&gt;" style="text;vsdxID=1;fillColor=none;gradientColor=none;labelBackgroundColor=none;rounded=0;html=1;whiteSpace=wrap;verticalAlign=middle;align=center;strokeColor=none;;html=1;" parent="2" vertex="1">
          <mxGeometry width="127.2" height="36" as="geometry" />
        </mxCell>
        <mxCell id="7" style="vsdxID=11;fillColor=#FFFFFF;gradientColor=none;shape=stencil(nZBLDoAgDERP0z3SIyjew0SURgSD+Lu9kMZoXLhwN9O+tukAlrNpJg1SzDH4QW/URgNYgZTkjA4UkwJUgGXng+6DX1zLfmoymdXo17xh5zmRJ6Q42BWCfc2oJfdAr+Yv+AP9Cb7OJ3H/2JG1HNGz/84klThPVCc=);labelBackgroundColor=none;rounded=0;html=1;whiteSpace=wrap;" parent="1" vertex="1">
          <mxGeometry x="242" y="78" width="127" height="36" as="geometry" />
        </mxCell>
        <mxCell id="8" style="vsdxID=12;fillColor=#FFFFFF;gradientColor=none;shape=stencil(nZBLDoAgDERP0z3SIyjew0SURgSD+Lu9kMZoXLhwN9O+tukAlrNpJg1SzDH4QW/URgNYgZTkjA4UkwJUgGXng+6DX1zLfmoymdXo17xh5zmRJ6Q42BWCfc2oJfdAr+Yv+AP9Cb7OJ3H/2JG1HNGz/84klThPVCc=);labelBackgroundColor=none;rounded=0;html=1;whiteSpace=wrap;" parent="7" vertex="1">
          <mxGeometry x="27" width="72" height="36" as="geometry" />
        </mxCell>
        <mxCell id="9" style="vsdxID=13;fillColor=#FFFFFF;gradientColor=none;shape=stencil(1VFBDsIgEHwNRxKE+IJa/7GxSyFiaRa07e+FLImtB+/eZnZmdgkjTJcczCi0SpniHRc/ZCfMRWjtJ4fkc0HC9MJ0NhKOFJ/TwHyG6qzoEV91w8q5s6oRrTamJ8X8yl6gW9GoeZuVtgP9vUitElafJMUM2cfpEA1AI8pyRNoAYwuylBbEeTf+h2cV8Plm60Pglvb6dy1lxJWa/g0=);labelBackgroundColor=none;rounded=0;html=1;whiteSpace=wrap;" parent="7" vertex="1">
          <mxGeometry x="51" y="-5" width="24" height="1" as="geometry" />
        </mxCell>
        <mxCell id="10" style="vsdxID=15;edgeStyle=none;dashed=1;startArrow=none;endArrow=none;startSize=5;endSize=5;spacingTop=0;spacingBottom=0;spacingLeft=0;spacingRight=0;verticalAlign=middle;html=1;labelBackgroundColor=#ffffff;rounded=0;" parent="7" edge="1">
          <mxGeometry relative="1" as="geometry">
            <Array as="points" />
            <mxPoint x="63" y="36" as="sourcePoint" />
            <mxPoint x="63" y="515" as="targetPoint" />
          </mxGeometry>
        </mxCell>
        <mxCell id="11" value="&lt;font style=&quot;font-size:16px;font-family:Arial;color:#000000;direction:ltr;letter-spacing:0px;line-height:120%;opacity:1&quot;&gt;&lt;b&gt;Program&lt;br/&gt;&lt;/b&gt;&lt;/font&gt;" style="text;vsdxID=11;fillColor=none;gradientColor=none;labelBackgroundColor=none;rounded=0;html=1;whiteSpace=wrap;verticalAlign=middle;align=center;strokeColor=none;;html=1;" parent="7" vertex="1">
          <mxGeometry width="127.2" height="36" as="geometry" />
        </mxCell>
        <mxCell id="12" style="vsdxID=16;fillColor=#FFFFFF;gradientColor=none;shape=stencil(nZBLDoAgDERP0z3SIyjew0SURgSD+Lu9kMZoXLhwN9O+tukAlrNpJg1SzDH4QW/URgNYgZTkjA4UkwJUgGXng+6DX1zLfmoymdXo17xh5zmRJ6Q42BWCfc2oJfdAr+Yv+AP9Cb7OJ3H/2JG1HNGz/84klThPVCc=);labelBackgroundColor=none;rounded=0;html=1;whiteSpace=wrap;" parent="1" vertex="1">
          <mxGeometry x="445" y="78" width="175" height="36" as="geometry" />
        </mxCell>
        <mxCell id="13" style="vsdxID=17;fillColor=#FFFFFF;gradientColor=none;shape=stencil(nZBLDoAgDERP0z3SIyjew0SURgSD+Lu9kMZoXLhwN9O+tukAlrNpJg1SzDH4QW/URgNYgZTkjA4UkwJUgGXng+6DX1zLfmoymdXo17xh5zmRJ6Q42BWCfc2oJfdAr+Yv+AP9Cb7OJ3H/2JG1HNGz/84klThPVCc=);labelBackgroundColor=none;rounded=0;html=1;whiteSpace=wrap;" parent="12" vertex="1">
          <mxGeometry x="51" width="72" height="36" as="geometry" />
        </mxCell>
        <mxCell id="14" style="vsdxID=18;fillColor=#FFFFFF;gradientColor=none;shape=stencil(1VFBDsIgEHwNRxKE+IJa/7GxSyFiaRa07e+FLImtB+/eZnZmdgkjTJcczCi0SpniHRc/ZCfMRWjtJ4fkc0HC9MJ0NhKOFJ/TwHyG6qzoEV91w8q5s6oRrTamJ8X8yl6gW9GoeZuVtgP9vUitElafJMUM2cfpEA1AI8pyRNoAYwuylBbEeTf+h2cV8Plm60Pglvb6dy1lxJWa/g0=);labelBackgroundColor=none;rounded=0;html=1;whiteSpace=wrap;" parent="12" vertex="1">
          <mxGeometry x="75" y="-5" width="24" height="1" as="geometry" />
        </mxCell>
        <mxCell id="15" style="vsdxID=20;edgeStyle=none;dashed=1;startArrow=none;endArrow=none;startSize=5;endSize=5;spacingTop=0;spacingBottom=0;spacingLeft=0;spacingRight=0;verticalAlign=middle;html=1;labelBackgroundColor=#ffffff;rounded=0;" parent="12" edge="1">
          <mxGeometry relative="1" as="geometry">
            <Array as="points" />
            <mxPoint x="87" y="36" as="sourcePoint" />
            <mxPoint x="87" y="520" as="targetPoint" />
          </mxGeometry>
        </mxCell>
        <mxCell id="16" value="&lt;font style=&quot;font-size:16px;font-family:Arial;color:#000000;direction:ltr;letter-spacing:0px;line-height:120%;opacity:1&quot;&gt;&lt;b&gt;Employee Database&lt;br/&gt;&lt;/b&gt;&lt;/font&gt;" style="text;vsdxID=16;fillColor=none;gradientColor=none;labelBackgroundColor=none;rounded=0;html=1;whiteSpace=wrap;verticalAlign=middle;align=center;strokeColor=none;;html=1;" parent="12" vertex="1">
          <mxGeometry width="175.32" height="36" as="geometry" />
        </mxCell>
        <mxCell id="17" value="&lt;font style=&quot;font-size:11px;font-family:Arial;color:#000000;direction:ltr;letter-spacing:0px;line-height:120%;opacity:1&quot;&gt;GetCurrentDetails(adminname, currentdate)&lt;br/&gt;&lt;/font&gt;" style="vsdxID=39;edgeStyle=none;startArrow=none;endArrow=block;startSize=2;endSize=7;spacingTop=0;spacingBottom=0;spacingLeft=0;spacingRight=0;verticalAlign=middle;html=1;labelBackgroundColor=#ffffff;rounded=0;align=center;exitX=0.5039370078740157;exitY=3.111111111111111;exitDx=0;exitDy=0;exitPerimeter=0;entryX=0.5039370078740157;entryY=4.527777777777778;entryDx=0;entryDy=0;entryPerimeter=0;" parent="1" source="7" target="7" edge="1">
          <mxGeometry relative="1" as="geometry">
            <mxPoint x="-16" y="-1" as="offset" />
            <Array as="points">
              <mxPoint x="331.4" y="190" />
              <mxPoint x="331.4" y="240.8" />
            </Array>
          </mxGeometry>
        </mxCell>
        <mxCell id="18" value="&lt;font style=&quot;font-size:9px;font-family:Arial;color:#000000;direction:ltr;letter-spacing:0px;line-height:120%;opacity:1&quot;&gt;EnterEmployeeDetails(name, email,&lt;br/&gt;phonenumber, dateofbirth,&lt;br/&gt;permissionlevel)&lt;br/&gt;&lt;/font&gt;" style="vsdxID=32;edgeStyle=none;startArrow=none;endArrow=block;startSize=2;endSize=7;spacingTop=0;spacingBottom=0;spacingLeft=0;spacingRight=0;verticalAlign=middle;html=1;labelBackgroundColor=#ffffff;rounded=0;align=center;exitX=0.5039370078740157;exitY=2.4166666666666665;exitDx=0;exitDy=0;exitPerimeter=0;entryX=0.5039370078740157;entryY=2.4166666666666665;entryDx=0;entryDy=0;entryPerimeter=0;" parent="1" source="2" target="7" edge="1">
          <mxGeometry relative="1" as="geometry">
            <mxPoint as="offset" />
            <Array as="points" />
          </mxGeometry>
        </mxCell>
        <mxCell id="19" value="&lt;font style=&quot;font-size:11px;font-family:Arial;color:#000000;direction:ltr;letter-spacing:0px;line-height:120%;opacity:1&quot;&gt;SubmitApplicant(name, email,&lt;br/&gt;phonenumber, dateofbirth,&lt;br/&gt;permissionlevel, adminname,&lt;br/&gt;currentdate)&lt;br/&gt;&lt;/font&gt;" style="vsdxID=21;edgeStyle=none;startArrow=none;endArrow=block;startSize=2;endSize=7;spacingTop=0;spacingBottom=0;spacingLeft=0;spacingRight=0;verticalAlign=middle;html=1;labelBackgroundColor=#ffffff;rounded=0;align=center;exitX=0.5039370078740157;exitY=5.25;exitDx=0;exitDy=0;exitPerimeter=0;entryX=0.49714285714285716;entryY=5.25;entryDx=0;entryDy=0;entryPerimeter=0;" parent="1" source="7" target="12" edge="1">
          <mxGeometry relative="1" as="geometry">
            <mxPoint as="offset" />
            <Array as="points" />
          </mxGeometry>
        </mxCell>
        <mxCell id="20" value="&lt;font style=&quot;font-size:11px;font-family:Arial;color:#000000;direction:ltr;letter-spacing:0px;line-height:120%;opacity:1&quot;&gt;AddApplicant(name, email,&lt;br/&gt;phonenumber, dateofbirth,&lt;br/&gt;permissionlevel, adminname,&lt;br/&gt;currentdate)&lt;br/&gt;&lt;/font&gt;" style="vsdxID=23;edgeStyle=none;startArrow=none;endArrow=block;startSize=2;endSize=7;spacingTop=0;spacingBottom=0;spacingLeft=0;spacingRight=0;verticalAlign=middle;html=1;labelBackgroundColor=#ffffff;rounded=0;align=center;exitX=0.49714285714285716;exitY=5.944444444444445;exitDx=0;exitDy=0;exitPerimeter=0;entryX=0.49714285714285716;entryY=8.777777777777779;entryDx=0;entryDy=0;entryPerimeter=0;" parent="1" source="12" target="12" edge="1">
          <mxGeometry relative="1" as="geometry">
            <mxPoint x="-16" as="offset" />
            <Array as="points">
              <mxPoint x="557.4" y="292" />
              <mxPoint x="557.4" y="393.6" />
            </Array>
          </mxGeometry>
        </mxCell>
        <mxCell id="21" value="&lt;font style=&quot;font-size:11px;font-family:Arial;color:#000000;direction:ltr;letter-spacing:0px;line-height:120%;opacity:1&quot;&gt;GetResult()&lt;br/&gt;&lt;/font&gt;" style="vsdxID=24;edgeStyle=none;dashed=1;startArrow=none;endArrow=open;startSize=2;endSize=7;spacingTop=0;spacingBottom=0;spacingLeft=0;spacingRight=0;verticalAlign=middle;html=1;labelBackgroundColor=#ffffff;rounded=0;align=center;exitX=0.49714285714285716;exitY=9.472222222222221;exitDx=0;exitDy=0;exitPerimeter=0;entryX=0.5039370078740157;entryY=9.472222222222221;entryDx=0;entryDy=0;entryPerimeter=0;" parent="1" source="12" target="7" edge="1">
          <mxGeometry relative="1" as="geometry">
            <mxPoint x="-1" as="offset" />
            <Array as="points" />
          </mxGeometry>
        </mxCell>
        <mxCell id="22" value="&lt;font style=&quot;font-size:11px;font-family:Arial;color:#000000;direction:ltr;letter-spacing:0px;line-height:120%;opacity:1&quot;&gt;DisplayResult()&lt;br/&gt;&lt;/font&gt;" style="vsdxID=27;edgeStyle=none;dashed=1;startArrow=none;endArrow=open;startSize=2;endSize=7;spacingTop=0;spacingBottom=0;spacingLeft=0;spacingRight=0;verticalAlign=middle;html=1;labelBackgroundColor=#ffffff;rounded=0;align=center;exitX=0.5039370078740157;exitY=10.166666666666666;exitDx=0;exitDy=0;exitPerimeter=0;entryX=0.5039370078740157;entryY=10.166666666666666;entryDx=0;entryDy=0;entryPerimeter=0;" parent="1" source="7" target="2" edge="1">
          <mxGeometry relative="1" as="geometry">
            <mxPoint x="-1" as="offset" />
            <Array as="points" />
          </mxGeometry>
        </mxCell>
      </root>
    </mxGraphModel>
  </diagram>
  <diagram id="wMStKX8pPDfwKWtrzCTb" name="Create Template">
    <mxGraphModel dx="1554" dy="771" grid="1" gridSize="10" guides="1" tooltips="1" connect="1" arrows="1" fold="1" page="1" pageScale="1" pageWidth="827" pageHeight="1169" math="0" shadow="0">
      <root>
        <mxCell id="762b7hQEj_YMWnxIz51C-0" />
        <mxCell id="762b7hQEj_YMWnxIz51C-1" parent="762b7hQEj_YMWnxIz51C-0" />
        <mxCell id="qY85ArYTNOVlWOyPXn_p-0" style="vsdxID=1;fillColor=#FFFFFF;gradientColor=none;shape=stencil(nZBLDoAgDERP0z3SIyjew0SURgSD+Lu9kMZoXLhwN9O+tukAlrNpJg1SzDH4QW/URgNYgZTkjA4UkwJUgGXng+6DX1zLfmoymdXo17xh5zmRJ6Q42BWCfc2oJfdAr+Yv+AP9Cb7OJ3H/2JG1HNGz/84klThPVCc=);labelBackgroundColor=none;rounded=0;html=1;whiteSpace=wrap;" vertex="1" parent="762b7hQEj_YMWnxIz51C-1">
          <mxGeometry x="100" y="78" width="117" height="36" as="geometry" />
        </mxCell>
        <mxCell id="qY85ArYTNOVlWOyPXn_p-1" style="vsdxID=2;fillColor=#FFFFFF;gradientColor=none;shape=stencil(nZBLDoAgDERP0z3SIyjew0SURgSD+Lu9kMZoXLhwN9O+tukAlrNpJg1SzDH4QW/URgNYgZTkjA4UkwJUgGXng+6DX1zLfmoymdXo17xh5zmRJ6Q42BWCfc2oJfdAr+Yv+AP9Cb7OJ3H/2JG1HNGz/84klThPVCc=);labelBackgroundColor=none;rounded=0;html=1;whiteSpace=wrap;" vertex="1" parent="qY85ArYTNOVlWOyPXn_p-0">
          <mxGeometry x="24.874015748031496" width="66.33070866141732" height="36" as="geometry" />
        </mxCell>
        <mxCell id="qY85ArYTNOVlWOyPXn_p-2" style="vsdxID=3;fillColor=#FFFFFF;gradientColor=none;shape=stencil(tZTNDoIwDICfZkeSsQXFM+J7LDJgcTJSpuDbu6USgQhBord2/dr1LyU8aUpRS8JoY8FcZKsyWxJ+JIypqpSgrJMITwlPcgOyAHOrMtRr4UkvXc3dR+jQj1HvwugD1ZCifkJWq2qejdaj+wV0K8kXyHCMsmgePaxH++asy2B9XfFmdGkE8ReTjbazux+FXV7E8dLyKTtEBZydCSabAH3HUO1GrZ4Eol0gOtUEYKywylSj7dMCChm4T4Jci+Llh6amlbIePG9O63N9f0nLCe/TkCut8bIM7dNT4p7wDPH0CQ==);labelBackgroundColor=none;rounded=0;html=1;whiteSpace=wrap;" vertex="1" parent="qY85ArYTNOVlWOyPXn_p-0">
          <mxGeometry x="46.98425196850394" y="-53" width="22.11023622047244" height="48" as="geometry" />
        </mxCell>
        <mxCell id="qY85ArYTNOVlWOyPXn_p-3" style="vsdxID=5;edgeStyle=none;dashed=1;startArrow=none;endArrow=none;startSize=5;endSize=5;spacingTop=0;spacingBottom=0;spacingLeft=0;spacingRight=0;verticalAlign=middle;html=1;labelBackgroundColor=#ffffff;rounded=0;" edge="1" parent="qY85ArYTNOVlWOyPXn_p-0">
          <mxGeometry relative="1" as="geometry">
            <Array as="points" />
            <mxPoint x="58.03937007874016" y="36" as="sourcePoint" />
            <mxPoint x="58" y="1092" as="targetPoint" />
          </mxGeometry>
        </mxCell>
        <mxCell id="qY85ArYTNOVlWOyPXn_p-4" value="&lt;font style=&quot;font-size:16px;font-family:Arial;color:#000000;direction:ltr;letter-spacing:0px;line-height:120%;opacity:1&quot;&gt;&lt;b&gt;Employee&lt;br/&gt;&lt;/b&gt;&lt;/font&gt;" style="text;vsdxID=1;fillColor=none;gradientColor=none;labelBackgroundColor=none;rounded=0;html=1;whiteSpace=wrap;verticalAlign=middle;align=center;strokeColor=none;;html=1;" vertex="1" parent="qY85ArYTNOVlWOyPXn_p-0">
          <mxGeometry width="117.18425196850394" height="36" as="geometry" />
        </mxCell>
        <mxCell id="qY85ArYTNOVlWOyPXn_p-5" style="vsdxID=16;fillColor=#FFFFFF;gradientColor=none;shape=stencil(nZBLDoAgDERP0z3SIyjew0SURgSD+Lu9kMZoXLhwN9O+tukAlrNpJg1SzDH4QW/URgNYgZTkjA4UkwJUgGXng+6DX1zLfmoymdXo17xh5zmRJ6Q42BWCfc2oJfdAr+Yv+AP9Cb7OJ3H/2JG1HNGz/84klThPVCc=);labelBackgroundColor=none;rounded=0;html=1;whiteSpace=wrap;" vertex="1" parent="762b7hQEj_YMWnxIz51C-1">
          <mxGeometry x="589" y="78" width="105" height="36" as="geometry" />
        </mxCell>
        <mxCell id="qY85ArYTNOVlWOyPXn_p-6" style="vsdxID=17;fillColor=#FFFFFF;gradientColor=none;shape=stencil(nZBLDoAgDERP0z3SIyjew0SURgSD+Lu9kMZoXLhwN9O+tukAlrNpJg1SzDH4QW/URgNYgZTkjA4UkwJUgGXng+6DX1zLfmoymdXo17xh5zmRJ6Q42BWCfc2oJfdAr+Yv+AP9Cb7OJ3H/2JG1HNGz/84klThPVCc=);labelBackgroundColor=none;rounded=0;html=1;whiteSpace=wrap;" vertex="1" parent="qY85ArYTNOVlWOyPXn_p-5">
          <mxGeometry x="16" width="72" height="36" as="geometry" />
        </mxCell>
        <mxCell id="qY85ArYTNOVlWOyPXn_p-7" style="vsdxID=18;fillColor=#FFFFFF;gradientColor=none;shape=stencil(1VFBDsIgEHwNRxKE+IJa/7GxSyFiaRa07e+FLImtB+/eZnZmdgkjTJcczCi0SpniHRc/ZCfMRWjtJ4fkc0HC9MJ0NhKOFJ/TwHyG6qzoEV91w8q5s6oRrTamJ8X8yl6gW9GoeZuVtgP9vUitElafJMUM2cfpEA1AI8pyRNoAYwuylBbEeTf+h2cV8Plm60Pglvb6dy1lxJWa/g0=);labelBackgroundColor=none;rounded=0;html=1;whiteSpace=wrap;" vertex="1" parent="qY85ArYTNOVlWOyPXn_p-5">
          <mxGeometry x="40" y="-5" width="24" height="1" as="geometry" />
        </mxCell>
        <mxCell id="qY85ArYTNOVlWOyPXn_p-8" style="vsdxID=20;edgeStyle=none;dashed=1;startArrow=none;endArrow=none;startSize=5;endSize=5;spacingTop=0;spacingBottom=0;spacingLeft=0;spacingRight=0;verticalAlign=middle;html=1;labelBackgroundColor=#ffffff;rounded=0;" edge="1" parent="qY85ArYTNOVlWOyPXn_p-5">
          <mxGeometry relative="1" as="geometry">
            <Array as="points" />
            <mxPoint x="52" y="36" as="sourcePoint" />
            <mxPoint x="51" y="1092" as="targetPoint" />
          </mxGeometry>
        </mxCell>
        <mxCell id="qY85ArYTNOVlWOyPXn_p-9" value="&lt;font style=&quot;font-size: 16px ; font-family: &amp;#34;arial&amp;#34; ; color: #000000 ; direction: ltr ; letter-spacing: 0px ; line-height: 120% ; opacity: 1&quot;&gt;&lt;b&gt;Template&lt;br&gt;&lt;/b&gt;&lt;/font&gt;" style="text;vsdxID=16;fillColor=none;gradientColor=none;labelBackgroundColor=none;rounded=0;html=1;whiteSpace=wrap;verticalAlign=middle;align=center;strokeColor=none;;html=1;" vertex="1" parent="qY85ArYTNOVlWOyPXn_p-5">
          <mxGeometry width="105.9" height="36" as="geometry" />
        </mxCell>
        <mxCell id="qY85ArYTNOVlWOyPXn_p-10" style="vsdxID=16;fillColor=#FFFFFF;gradientColor=none;shape=stencil(nZBLDoAgDERP0z3SIyjew0SURgSD+Lu9kMZoXLhwN9O+tukAlrNpJg1SzDH4QW/URgNYgZTkjA4UkwJUgGXng+6DX1zLfmoymdXo17xh5zmRJ6Q42BWCfc2oJfdAr+Yv+AP9Cb7OJ3H/2JG1HNGz/84klThPVCc=);labelBackgroundColor=none;rounded=0;html=1;whiteSpace=wrap;" vertex="1" parent="762b7hQEj_YMWnxIz51C-1">
          <mxGeometry x="350" y="80" width="105" height="36" as="geometry" />
        </mxCell>
        <mxCell id="qY85ArYTNOVlWOyPXn_p-11" style="vsdxID=17;fillColor=#FFFFFF;gradientColor=none;shape=stencil(nZBLDoAgDERP0z3SIyjew0SURgSD+Lu9kMZoXLhwN9O+tukAlrNpJg1SzDH4QW/URgNYgZTkjA4UkwJUgGXng+6DX1zLfmoymdXo17xh5zmRJ6Q42BWCfc2oJfdAr+Yv+AP9Cb7OJ3H/2JG1HNGz/84klThPVCc=);labelBackgroundColor=none;rounded=0;html=1;whiteSpace=wrap;" vertex="1" parent="qY85ArYTNOVlWOyPXn_p-10">
          <mxGeometry x="16" width="72" height="36" as="geometry" />
        </mxCell>
        <mxCell id="qY85ArYTNOVlWOyPXn_p-12" style="vsdxID=18;fillColor=#FFFFFF;gradientColor=none;shape=stencil(1VFBDsIgEHwNRxKE+IJa/7GxSyFiaRa07e+FLImtB+/eZnZmdgkjTJcczCi0SpniHRc/ZCfMRWjtJ4fkc0HC9MJ0NhKOFJ/TwHyG6qzoEV91w8q5s6oRrTamJ8X8yl6gW9GoeZuVtgP9vUitElafJMUM2cfpEA1AI8pyRNoAYwuylBbEeTf+h2cV8Plm60Pglvb6dy1lxJWa/g0=);labelBackgroundColor=none;rounded=0;html=1;whiteSpace=wrap;" vertex="1" parent="qY85ArYTNOVlWOyPXn_p-10">
          <mxGeometry x="40" y="-5" width="24" height="1" as="geometry" />
        </mxCell>
        <mxCell id="qY85ArYTNOVlWOyPXn_p-13" style="vsdxID=20;edgeStyle=none;dashed=1;startArrow=none;endArrow=none;startSize=5;endSize=5;spacingTop=0;spacingBottom=0;spacingLeft=0;spacingRight=0;verticalAlign=middle;html=1;labelBackgroundColor=#ffffff;rounded=0;" edge="1" parent="qY85ArYTNOVlWOyPXn_p-10">
          <mxGeometry relative="1" as="geometry">
            <Array as="points" />
            <mxPoint x="52" y="36" as="sourcePoint" />
            <mxPoint x="50" y="1090" as="targetPoint" />
          </mxGeometry>
        </mxCell>
        <mxCell id="qY85ArYTNOVlWOyPXn_p-14" value="&lt;font style=&quot;font-size:16px;font-family:Arial;color:#000000;direction:ltr;letter-spacing:0px;line-height:120%;opacity:1&quot;&gt;&lt;b&gt;Program&lt;br/&gt;&lt;/b&gt;&lt;/font&gt;" style="text;vsdxID=16;fillColor=none;gradientColor=none;labelBackgroundColor=none;rounded=0;html=1;whiteSpace=wrap;verticalAlign=middle;align=center;strokeColor=none;;html=1;" vertex="1" parent="qY85ArYTNOVlWOyPXn_p-10">
          <mxGeometry width="105.9" height="36" as="geometry" />
        </mxCell>
        <mxCell id="qY85ArYTNOVlWOyPXn_p-15" value="" style="endArrow=classic;html=1;" edge="1" parent="762b7hQEj_YMWnxIz51C-1">
          <mxGeometry width="50" height="50" relative="1" as="geometry">
            <mxPoint x="160" y="160" as="sourcePoint" />
            <mxPoint x="400" y="160" as="targetPoint" />
          </mxGeometry>
        </mxCell>
        <mxCell id="vjKXKKV8eTRSmkNRtwrJ-0" value="SelectApplicationType(cv)" style="edgeLabel;html=1;align=center;verticalAlign=middle;resizable=0;points=[];" vertex="1" connectable="0" parent="qY85ArYTNOVlWOyPXn_p-15">
          <mxGeometry x="0.0083" y="-3" relative="1" as="geometry">
            <mxPoint as="offset" />
          </mxGeometry>
        </mxCell>
        <mxCell id="Hw6Jdwyqd2Cnavtjhgpn-0" value="&lt;font style=&quot;font-size: 11px ; font-family: &amp;#34;arial&amp;#34; ; color: #000000 ; direction: ltr ; letter-spacing: 0px ; line-height: 120% ; opacity: 1&quot;&gt;CheckBox(cv)&lt;br&gt;&lt;/font&gt;" style="vsdxID=23;edgeStyle=none;startArrow=none;endArrow=block;startSize=2;endSize=7;spacingTop=0;spacingBottom=0;spacingLeft=0;spacingRight=0;verticalAlign=middle;html=1;labelBackgroundColor=#ffffff;rounded=0;align=center;" edge="1" parent="762b7hQEj_YMWnxIz51C-1">
          <mxGeometry relative="1" as="geometry">
            <mxPoint x="-16" as="offset" />
            <Array as="points">
              <mxPoint x="440" y="200" />
              <mxPoint x="440" y="280" />
            </Array>
            <mxPoint x="400" y="200" as="sourcePoint" />
            <mxPoint x="400" y="280" as="targetPoint" />
          </mxGeometry>
        </mxCell>
        <mxCell id="Fbz_PDSxvJwzSeoR_QdA-0" value="&lt;font style=&quot;font-size: 11px ; font-family: &amp;#34;arial&amp;#34; ; color: #000000 ; direction: ltr ; letter-spacing: 0px ; line-height: 120% ; opacity: 1&quot;&gt;DisplayCheckedBox(cv)&lt;br&gt;&lt;/font&gt;" style="vsdxID=24;edgeStyle=none;dashed=1;startArrow=none;endArrow=open;startSize=2;endSize=7;spacingTop=0;spacingBottom=0;spacingLeft=0;spacingRight=0;verticalAlign=middle;html=1;labelBackgroundColor=#ffffff;rounded=0;align=center;" edge="1" parent="762b7hQEj_YMWnxIz51C-1">
          <mxGeometry relative="1" as="geometry">
            <mxPoint x="-1" as="offset" />
            <Array as="points" />
            <mxPoint x="400" y="320" as="sourcePoint" />
            <mxPoint x="160" y="320" as="targetPoint" />
          </mxGeometry>
        </mxCell>
        <mxCell id="Fbz_PDSxvJwzSeoR_QdA-1" value="" style="endArrow=classic;html=1;" edge="1" parent="762b7hQEj_YMWnxIz51C-1">
          <mxGeometry width="50" height="50" relative="1" as="geometry">
            <mxPoint x="160" y="400" as="sourcePoint" />
            <mxPoint x="400" y="400" as="targetPoint" />
          </mxGeometry>
        </mxCell>
        <mxCell id="Fbz_PDSxvJwzSeoR_QdA-2" value="SelectHeaderCodes(header)" style="edgeLabel;html=1;align=center;verticalAlign=middle;resizable=0;points=[];" vertex="1" connectable="0" parent="Fbz_PDSxvJwzSeoR_QdA-1">
          <mxGeometry x="0.0083" y="-3" relative="1" as="geometry">
            <mxPoint as="offset" />
          </mxGeometry>
        </mxCell>
        <mxCell id="Fbz_PDSxvJwzSeoR_QdA-3" value="&lt;font style=&quot;font-size: 11px ; font-family: &amp;#34;arial&amp;#34; ; color: #000000 ; direction: ltr ; letter-spacing: 0px ; line-height: 120% ; opacity: 1&quot;&gt;UpdatePreviewText(header)&lt;br&gt;&lt;/font&gt;" style="vsdxID=23;edgeStyle=none;startArrow=none;endArrow=block;startSize=2;endSize=7;spacingTop=0;spacingBottom=0;spacingLeft=0;spacingRight=0;verticalAlign=middle;html=1;labelBackgroundColor=#ffffff;rounded=0;align=center;" edge="1" parent="762b7hQEj_YMWnxIz51C-1">
          <mxGeometry relative="1" as="geometry">
            <mxPoint x="-16" as="offset" />
            <Array as="points">
              <mxPoint x="440" y="440" />
              <mxPoint x="440" y="520" />
            </Array>
            <mxPoint x="400" y="440" as="sourcePoint" />
            <mxPoint x="400" y="520" as="targetPoint" />
          </mxGeometry>
        </mxCell>
        <mxCell id="Fbz_PDSxvJwzSeoR_QdA-4" value="&lt;font style=&quot;font-size: 11px ; font-family: &amp;#34;arial&amp;#34; ; color: #000000 ; direction: ltr ; letter-spacing: 0px ; line-height: 120% ; opacity: 1&quot;&gt;DisplayPreviewText(header)&lt;br&gt;&lt;/font&gt;" style="vsdxID=24;edgeStyle=none;dashed=1;startArrow=none;endArrow=open;startSize=2;endSize=7;spacingTop=0;spacingBottom=0;spacingLeft=0;spacingRight=0;verticalAlign=middle;html=1;labelBackgroundColor=#ffffff;rounded=0;align=center;" edge="1" parent="762b7hQEj_YMWnxIz51C-1">
          <mxGeometry relative="1" as="geometry">
            <mxPoint x="-1" as="offset" />
            <Array as="points" />
            <mxPoint x="400" y="560" as="sourcePoint" />
            <mxPoint x="160" y="560" as="targetPoint" />
          </mxGeometry>
        </mxCell>
        <mxCell id="Fbz_PDSxvJwzSeoR_QdA-8" value="" style="endArrow=classic;html=1;" edge="1" parent="762b7hQEj_YMWnxIz51C-1">
          <mxGeometry width="50" height="50" relative="1" as="geometry">
            <mxPoint x="160" y="640" as="sourcePoint" />
            <mxPoint x="400" y="640" as="targetPoint" />
          </mxGeometry>
        </mxCell>
        <mxCell id="Fbz_PDSxvJwzSeoR_QdA-9" value="SelectFooterCodes(footer)" style="edgeLabel;html=1;align=center;verticalAlign=middle;resizable=0;points=[];" vertex="1" connectable="0" parent="Fbz_PDSxvJwzSeoR_QdA-8">
          <mxGeometry x="0.0083" y="-3" relative="1" as="geometry">
            <mxPoint as="offset" />
          </mxGeometry>
        </mxCell>
        <mxCell id="Fbz_PDSxvJwzSeoR_QdA-10" value="&lt;font style=&quot;font-size: 11px ; font-family: &amp;#34;arial&amp;#34; ; color: #000000 ; direction: ltr ; letter-spacing: 0px ; line-height: 120% ; opacity: 1&quot;&gt;UpdatePreviewText(footer)&lt;br&gt;&lt;/font&gt;" style="vsdxID=23;edgeStyle=none;startArrow=none;endArrow=block;startSize=2;endSize=7;spacingTop=0;spacingBottom=0;spacingLeft=0;spacingRight=0;verticalAlign=middle;html=1;labelBackgroundColor=#ffffff;rounded=0;align=center;" edge="1" parent="762b7hQEj_YMWnxIz51C-1">
          <mxGeometry relative="1" as="geometry">
            <mxPoint x="-16" as="offset" />
            <Array as="points">
              <mxPoint x="440" y="680" />
              <mxPoint x="440" y="760" />
            </Array>
            <mxPoint x="400" y="680" as="sourcePoint" />
            <mxPoint x="400" y="760" as="targetPoint" />
          </mxGeometry>
        </mxCell>
        <mxCell id="Fbz_PDSxvJwzSeoR_QdA-11" value="&lt;font style=&quot;font-size: 11px ; font-family: &amp;#34;arial&amp;#34; ; color: #000000 ; direction: ltr ; letter-spacing: 0px ; line-height: 120% ; opacity: 1&quot;&gt;DisplayPreviewText(footer)&lt;br&gt;&lt;/font&gt;" style="vsdxID=24;edgeStyle=none;dashed=1;startArrow=none;endArrow=open;startSize=2;endSize=7;spacingTop=0;spacingBottom=0;spacingLeft=0;spacingRight=0;verticalAlign=middle;html=1;labelBackgroundColor=#ffffff;rounded=0;align=center;" edge="1" parent="762b7hQEj_YMWnxIz51C-1">
          <mxGeometry relative="1" as="geometry">
            <mxPoint x="-1" as="offset" />
            <Array as="points" />
            <mxPoint x="400" y="800" as="sourcePoint" />
            <mxPoint x="160" y="800" as="targetPoint" />
          </mxGeometry>
        </mxCell>
        <mxCell id="Fbz_PDSxvJwzSeoR_QdA-12" value="" style="endArrow=classic;html=1;" edge="1" parent="762b7hQEj_YMWnxIz51C-1">
          <mxGeometry width="50" height="50" relative="1" as="geometry">
            <mxPoint x="160" y="880" as="sourcePoint" />
            <mxPoint x="400" y="880" as="targetPoint" />
          </mxGeometry>
        </mxCell>
        <mxCell id="Fbz_PDSxvJwzSeoR_QdA-13" value="EnterTemplateName(input)" style="edgeLabel;html=1;align=center;verticalAlign=middle;resizable=0;points=[];" vertex="1" connectable="0" parent="Fbz_PDSxvJwzSeoR_QdA-12">
          <mxGeometry x="0.0083" y="-3" relative="1" as="geometry">
            <mxPoint as="offset" />
          </mxGeometry>
        </mxCell>
        <mxCell id="Fbz_PDSxvJwzSeoR_QdA-15" value="&lt;font style=&quot;font-size: 11px ; font-family: &amp;#34;arial&amp;#34; ; color: #000000 ; direction: ltr ; letter-spacing: 0px ; line-height: 120% ; opacity: 1&quot;&gt;TemplateName(input)&lt;br&gt;&lt;/font&gt;" style="vsdxID=23;edgeStyle=none;startArrow=none;endArrow=block;startSize=2;endSize=7;spacingTop=0;spacingBottom=0;spacingLeft=0;spacingRight=0;verticalAlign=middle;html=1;labelBackgroundColor=#ffffff;rounded=0;align=center;" edge="1" parent="762b7hQEj_YMWnxIz51C-1">
          <mxGeometry relative="1" as="geometry">
            <mxPoint x="-16" as="offset" />
            <Array as="points">
              <mxPoint x="440" y="920" />
              <mxPoint x="440" y="1000" />
            </Array>
            <mxPoint x="400" y="920" as="sourcePoint" />
            <mxPoint x="400" y="1000" as="targetPoint" />
          </mxGeometry>
        </mxCell>
        <mxCell id="Fbz_PDSxvJwzSeoR_QdA-16" value="&lt;font style=&quot;font-size: 11px ; font-family: &amp;#34;arial&amp;#34; ; color: #000000 ; direction: ltr ; letter-spacing: 0px ; line-height: 120% ; opacity: 1&quot;&gt;DisplayTemplateName(input)&lt;br&gt;&lt;/font&gt;" style="vsdxID=24;edgeStyle=none;dashed=1;startArrow=none;endArrow=open;startSize=2;endSize=7;spacingTop=0;spacingBottom=0;spacingLeft=0;spacingRight=0;verticalAlign=middle;html=1;labelBackgroundColor=#ffffff;rounded=0;align=center;" edge="1" parent="762b7hQEj_YMWnxIz51C-1">
          <mxGeometry relative="1" as="geometry">
            <mxPoint x="-1" as="offset" />
            <Array as="points" />
            <mxPoint x="400" y="1040" as="sourcePoint" />
            <mxPoint x="160" y="1040" as="targetPoint" />
          </mxGeometry>
        </mxCell>
        <mxCell id="Fbz_PDSxvJwzSeoR_QdA-17" value="" style="endArrow=classic;html=1;" edge="1" parent="762b7hQEj_YMWnxIz51C-1">
          <mxGeometry width="50" height="50" relative="1" as="geometry">
            <mxPoint x="160" y="1120" as="sourcePoint" />
            <mxPoint x="400" y="1120" as="targetPoint" />
          </mxGeometry>
        </mxCell>
        <mxCell id="Fbz_PDSxvJwzSeoR_QdA-18" value="ClickSaveTemplate(template)" style="edgeLabel;html=1;align=center;verticalAlign=middle;resizable=0;points=[];" vertex="1" connectable="0" parent="Fbz_PDSxvJwzSeoR_QdA-17">
          <mxGeometry x="0.0083" y="-3" relative="1" as="geometry">
            <mxPoint as="offset" />
          </mxGeometry>
        </mxCell>
        <mxCell id="Fbz_PDSxvJwzSeoR_QdA-20" value="" style="endArrow=classic;html=1;" edge="1" parent="762b7hQEj_YMWnxIz51C-1">
          <mxGeometry width="50" height="50" relative="1" as="geometry">
            <mxPoint x="400" y="1160" as="sourcePoint" />
            <mxPoint x="640" y="1160" as="targetPoint" />
          </mxGeometry>
        </mxCell>
        <mxCell id="Fbz_PDSxvJwzSeoR_QdA-21" value="SaveTemplate(template)" style="edgeLabel;html=1;align=center;verticalAlign=middle;resizable=0;points=[];" vertex="1" connectable="0" parent="Fbz_PDSxvJwzSeoR_QdA-20">
          <mxGeometry x="0.0083" y="-3" relative="1" as="geometry">
            <mxPoint as="offset" />
          </mxGeometry>
        </mxCell>
      </root>
    </mxGraphModel>
  </diagram>
</mxfile>
